<svg xmlns="http://www.w3.org/2000/svg" version="1.1" x="0" y="0" viewBox="0 0 144 43.2" xml:space="preserve">
  <style type="text/css">
	  .path{ fill: #ffffff; }
  </style>
  <path class="path" d="M40.8 24.7c0 0.9-0.2 1.8-0.7 2.6s-1.1 1.5-2 2c-0.9 0.5-1.9 0.7-3.2 0.7 -1 0-2-0.1-2.9-0.4 -0.9-0.3-1.8-0.7-2.5-1.2v-3.5c0.5 0.4 1.2 0.8 2.1 1.1 0.9 0.4 1.7 0.6 2.4 0.6 0.8 0 1.4-0.2 1.7-0.6 0.3-0.4 0.5-0.9 0.5-1.3 0-0.4-0.1-0.7-0.3-1.1 -0.2-0.3-0.5-0.6-1-0.8s-1.1-0.3-1.9-0.3c-0.9 0-1.7 0.2-2.5 0.5v-9.6h9.5v3.5h-5.9v2.8c0.1 0 0.3 0 0.4 0 0.1 0 0.2 0 0.3 0 0.1 0 0.2 0 0.3 0 1.1 0 2.1 0.2 2.9 0.7 0.8 0.5 1.5 1.1 1.9 1.9C40.6 22.9 40.8 23.8 40.8 24.7zM58.8 18.6c0 0.6-0.1 1.2-0.3 1.8 -0.2 0.6-0.5 1.1-1 1.6 -0.5 0.5-1.1 0.9-1.9 1.2 -0.8 0.3-1.7 0.5-2.8 0.5h-3.2v6.1h-4.9V13.4h8.2c1.1 0 2 0.2 2.8 0.5s1.4 0.7 1.9 1.2c0.5 0.5 0.8 1.1 1 1.6C58.7 17.3 58.8 17.9 58.8 18.6zM53.8 18.6c0-0.8-0.2-1.3-0.7-1.6 -0.5-0.3-1.3-0.4-2.5-0.4h-1v3.9h1.1c0.8 0 1.5-0.1 1.9-0.2 0.4-0.1 0.8-0.3 1-0.6C53.7 19.5 53.8 19.1 53.8 18.6zM77.5 29.8h-5.1l-1.3-3.3H64l-1.4 3.3h-5.1l7.2-16.4h5.5L77.5 29.8zM69.9 23.6l-2.4-6 -2.4 6H69.9zM94 28.6c-0.7 0.4-1.4 0.6-2.1 0.9 -0.7 0.2-1.4 0.4-2.1 0.5C89 30 88.3 30 87.5 30c-1.4 0-2.7-0.2-3.8-0.6 -1.1-0.4-2.1-1-2.9-1.7 -0.8-0.8-1.5-1.7-1.9-2.7 -0.4-1-0.6-2.2-0.6-3.4 0-1.4 0.2-2.6 0.7-3.7 0.5-1.1 1.2-1.9 2.1-2.6s1.9-1.2 3-1.6 2.3-0.5 3.6-0.5c1.9 0 4 0.4 6.3 1.2v4.4c-0.8-0.5-1.6-0.9-2.4-1.3 -0.8-0.3-1.7-0.5-2.8-0.5 -1 0-1.8 0.2-2.7 0.6 -0.8 0.4-1.5 0.9-2 1.6 -0.5 0.7-0.8 1.5-0.8 2.5 0 0.8 0.2 1.6 0.7 2.3 0.4 0.7 1.1 1.2 1.8 1.6 0.8 0.4 1.7 0.6 2.7 0.6 0.8 0 1.5-0.1 2.3-0.3 0.7-0.2 1.3-0.4 1.8-0.6 0.5-0.2 1-0.5 1.5-0.8V28.6zM114.5 29.8h-6l-6.3-7.7v7.7h-4.9V13.4h4.9v7.3l5.9-7.3h5.4l-6.1 7.7L114.5 29.8z"/>
  <path class="path" d="M138.3 0H5.7 0v37.5 5.7h5.7 132.7 5.7V5.7 0H138.3zM138.3 37.5H5.7V5.7h132.7V37.5z"/>
</svg>