<svg xmlns="http://www.w3.org/2000/svg" xmlns:xlink="http://www.w3.org/1999/xlink" version="1.1" id="Layer_1" x="0" y="0" viewBox="0 0 570.5 166.3" xml:space="preserve" enable-background="new 0 0 570.5 166.3">
  <style type="text/css">
    
	.st0{fill:#FFFFFF;}
	.st1{fill:none;}

  </style>
  <path class="st0" d="M78.1 99.3h-0.3c-6.7 8.2-17.8 12.8-30.6 12.8C18.6 112.1 0 96.4 0 68.4c0-23.3 17.2-42.2 46.8-42.2 14 0 24.7 4.6 30 12.3h0.3V0.3h31.5v108.5H78.1V99.3zM54.7 48.2c-14.4 0-22.3 7.1-22.3 20.5 0 13.4 7.9 20.5 22.3 20.5 14.7 0 22.5-8 22.5-20.5C77.2 56.2 69.4 48.2 54.7 48.2z"/>
  <path class="st0" d="M170.3 25c36.4 0 56.5 15 56.5 43.6 0 28.5-20.1 43.6-56.5 43.6 -36.4 0-56.5-15-56.5-43.6C113.8 40 133.9 25 170.3 25zM147.1 68.5c0 15.2 8.9 22.8 23.2 22.8 14.3 0 23.2-7.6 23.2-22.8 0-15.2-8.9-22.8-23.2-22.8C156.1 45.8 147.1 53.4 147.1 68.5z"/>
  <path class="st0" d="M231.4 0H263v56.4l31.5-28.1h42.7L300 58.1l40.7 50.7h-42.8L275 78.4 263 88v20.8h-31.5V0z"/>
  <path class="st0" d="M339.8 0h31.5v56.4l31.5-28.1h42.7l-37.2 29.9 40.7 50.7h-42.8l-22.9-30.5 -12 9.7v20.8h-31.5V0z"/>
  <path class="st0" d="M19.4 148.5c-0.4-2.6-2.5-4.8-6.4-4.8 -4.4 0-7.3 2.6-7.3 7.7 0 3.6 1.9 7.2 7.1 7.2 3.3 0 5.8-1.6 6.6-5.2h2.8c-0.4 4.2-4 7.7-9.4 7.7 -4.7 0-9.9-2.6-9.9-9.9 0-5.5 3.4-9.8 9.8-9.8 3.8 0 8.9 1.6 9.4 7.2H19.4z"/>
  <path class="st0" d="M26.7 154.4c0.2 2.8 2.7 4.4 5.1 4.4 1.5 0 3.6-0.5 4.4-2.4h2.8c-1.3 3.3-4.4 4.7-7.1 4.7 -5.4 0-8-3.4-8-7.4 0-4 2.6-7.4 8-7.4 3.6 0 7.5 2.1 7.5 7.8v0.3H26.7zM36.6 152.4c-0.4-2.5-2.3-3.9-4.8-3.9 -2.4 0-4.6 1.4-5 3.9H36.6z"/>
  <path class="st0" d="M41.8 146.8h2.6v2.1h0.1c1.2-1.9 3.4-2.6 5.4-2.6 3.3 0 5.8 1.4 5.8 4.9v9.4H53v-8.9c0-2-1.3-3.2-4.1-3.2 -2.4 0-4.5 1.4-4.5 4.1v7.9h-2.6V146.8z"/>
  <path class="st0" d="M59.8 142.5h2.6v4.2h3.9v2.1h-3.9v8.5c0 1.1 0.8 1.5 2.1 1.5 0.6 0 1.2-0.1 1.8-0.2v2.2c-0.9 0.2-1.9 0.2-2.9 0.2 -2.6 0-3.6-1.3-3.6-3.3v-8.9h-2.8v-2.1h2.8V142.5z"/>
  <path class="st0" d="M68 146.8h2.6v2.5h0.1c1.2-2.2 3-3 4.7-3 0.7 0 1 0 1.5 0.2v2.8c-0.7-0.2-1.2-0.3-1.9-0.3 -2.6 0-4.4 1.5-4.4 4.5v7H68V146.8z"/>
  <path class="st0" d="M92.2 160.5h-2.6v-2.1h-0.1c-1.2 1.9-3.4 2.6-5.4 2.6 -3.3 0-5.8-1.4-5.8-4.9v-9.4H81v8.9c0 2 1.3 3.2 4.1 3.2 2.4 0 4.5-1.4 4.5-4.1v-7.9h2.6V160.5z"/>
  <path class="st0" d="M116.2 151.8c0-2.5-1.6-3.3-3.3-3.3 -2.4 0-4.5 1.1-4.5 3.7v8.3h-2.6v-8.8c0-2.5-1.6-3.3-3.3-3.3 -2.4 0-4.5 1.4-4.5 4.1v7.9h-2.6v-13.8h2.6v2.1H98c1.2-1.9 3.4-2.6 5.4-2.6 1.8 0 3.6 0.7 4.7 2.6 1.3-1.6 2.9-2.6 5.6-2.6 1.4 0 5.2 0.7 5.2 4.9v9.4h-2.6V151.8z"/>
  <path class="st0" d="M131.2 144.7c0-2.6 1.6-3.4 4.2-3.4 0.8 0 1.5 0.1 2.3 0.2v2.1c-0.5 0-1-0.1-1.5-0.1 -1.7 0-2.4 0.2-2.4 1.3v1.9h3.9v2.1h-3.9v11.7h-2.6v-11.7h-2.8v-2.1h2.8V144.7z"/>
  <path class="st0" d="M146.1 146.3c5.4 0 8 3.4 8 7.4 0 4-2.6 7.4-8 7.4 -5.4 0-8-3.4-8-7.4C138.1 149.7 140.7 146.3 146.1 146.3zM146.1 148.5c-3.8 0-5.2 2.7-5.2 5.2 0 2.5 1.4 5.2 5.2 5.2 3.8 0 5.2-2.7 5.2-5.2C151.3 151.2 149.9 148.5 146.1 148.5z"/>
  <path class="st0" d="M156.4 146.8h2.6v2.5h0.1c1.2-2.2 3-3 4.7-3 0.7 0 1 0 1.5 0.2v2.8c-0.7-0.2-1.2-0.3-1.9-0.3 -2.6 0-4.4 1.5-4.4 4.5v7h-2.6V146.8z"/>
  <path class="st0" d="M186.1 146.8h2.9l-6.2 13.8h-2.9l-6.3-13.8h3l4.7 10.9L186.1 146.8z"/>
  <path class="st0" d="M191.9 154.4c0.2 2.8 2.7 4.4 5.1 4.4 1.5 0 3.6-0.5 4.4-2.4h2.8c-1.3 3.3-4.4 4.7-7.1 4.7 -5.4 0-8-3.4-8-7.4 0-4 2.6-7.4 8-7.4 3.6 0 7.5 2.1 7.5 7.8v0.3H191.9zM201.8 152.4c-0.4-2.5-2.3-3.9-4.8-3.9 -2.4 0-4.6 1.4-5 3.9H201.8z"/>
  <path class="st0" d="M206.9 141.6h2.6v19h-2.6V141.6z"/>
  <path class="st0" d="M213.6 144.7c0-2.6 1.6-3.4 4.2-3.4 0.8 0 1.5 0.1 2.3 0.2v2.1c-0.5 0-1-0.1-1.5-0.1 -1.7 0-2.4 0.2-2.4 1.3v1.9h3.9v2.1h-3.9v11.7h-2.6v-11.7h-2.8v-2.1h2.8V144.7z"/>
  <path class="st0" d="M234.4 154.4c0.3 2.8 1.7 4.4 4.8 4.4 1.5 0 3.5-0.5 4.4-2.4h2.8c-1.3 3.3-4.4 4.7-7.1 4.7 -2.4 0-4.8-0.4-6.5-3 -0.7 1.1-2.6 3-6.7 3 -4.6 0-5.6-2.4-5.6-4.2 0-2.6 1.5-3.9 5.8-4.3l3.2-0.3c1.5-0.2 2.4-0.4 2.4-1.7 0-1.9-1.8-2.3-4-2.3 -2.3 0-4.2 0.6-4.3 2.7h-2.5c0.3-3.4 2.7-4.8 6.8-4.8 2.4 0 4.5 0.6 5.9 2.3 1.3-1.6 3.4-2.3 5.4-2.3 4.7 0 7.4 3.3 7.4 7.8v0.3H234.4zM231.9 153.9c-0.9 0.2-1.6 0.4-2.6 0.4l-2.6 0.2c-2.3 0.2-3.5 0.8-3.5 2.3 0 1.3 1.3 2.2 3.2 2.2 3 0 5.5-1.6 5.5-3.9V153.9zM244 152.4c-0.4-2.5-2.3-3.9-4.8-3.9 -2.4 0-4.4 1.4-4.8 3.9H244z"/>
  <path class="st0" d="M249.2 146.8h2.6v2.5h0.1c1.2-2.2 3-3 4.7-3 0.7 0 1 0 1.5 0.2v2.8c-0.7-0.2-1.2-0.3-1.9-0.3 -2.6 0-4.4 1.5-4.4 4.5v7h-2.6V146.8z"/>
  <path class="st0" d="M271.5 158.8L271.5 158.8c-1.1 1.4-3.3 2.2-5.3 2.2 -4.2 0-7.5-2.7-7.5-7.3s3.3-7.3 7.5-7.3c2.1 0 4.2 0.7 5.2 2.2h0.1v-7.1h2.6v19h-2.6V158.8zM266.6 158.8c3.6 0 5.1-2.5 5.1-5.1 0-3.2-2-5.1-5.1-5.1 -3.1 0-5.1 1.9-5.1 5.1C261.5 156.3 263 158.8 266.6 158.8z"/>
  <path class="st0" d="M279 156.2c0 1.2 1 2.8 4.3 2.8 3.4 0 4.2-1.2 4.2-2.2 0-1-0.5-1.6-2.6-1.8l-4.3-0.6c-2-0.3-3.7-1.5-3.7-3.7 0-2.8 2.4-4.4 6.3-4.4 4.5 0 6.5 1.9 6.7 4.6h-2.6c-0.1-1.4-1.4-2.6-4.1-2.6 -1.7 0-3.6 0.5-3.6 2.1 0 0.9 0.4 1.4 2.3 1.7l3.7 0.5c3.5 0.5 4.8 1.7 4.8 3.7 0 3.2-2.7 4.7-6.9 4.7 -3.2 0-6.8-0.8-7.1-4.8H279z"/>
  <path class="st0" d="M292.5 151.9h9.2v2.7h-9.2V151.9z"/>
  <path class="st0" d="M320.7 146.3c5.4 0 8 3.4 8 7.4 0 4-2.6 7.4-8 7.4 -5.4 0-8-3.4-8-7.4C312.7 149.7 315.4 146.3 320.7 146.3zM320.7 148.5c-3.8 0-5.2 2.7-5.2 5.2 0 2.5 1.4 5.2 5.2 5.2s5.2-2.7 5.2-5.2C326 151.2 324.6 148.5 320.7 148.5z"/>
  <path class="st0" d="M343.4 146.8h2.6v12.6c0 4.9-2.4 6.9-8 6.9 -3 0-6.4-0.5-6.9-4.3h2.6c0.5 1.8 2.1 2.2 4.6 2.2 3.7 0 5.1-1.9 5.1-4.2v-2h-0.1c-1.5 2.1-3.6 2.6-5.3 2.6 -3.7 0-7.6-2-7.6-7.1 0-5.1 3.9-7.1 7.5-7.1 2.3 0 4.3 0.8 5.4 2.3h0.1V146.8zM338.3 148.7c-3.2 0-5.1 2.1-5.1 4.9 0 2.8 1.9 4.9 5.1 4.9 3.2 0 5.1-2 5.1-4.9C343.4 150.8 341.5 148.7 338.3 148.7z"/>
  <path class="st0" d="M358.2 144.7c0-2.6 1.6-3.4 4.2-3.4 0.8 0 1.5 0.1 2.3 0.2v2.1c-0.5 0-1-0.1-1.5-0.1 -1.7 0-2.4 0.2-2.4 1.3v1.9h3.9v2.1h-3.9v11.7h-2.6v-11.7h-2.8v-2.1h2.8V144.7z"/>
  <path class="st0" d="M366 146.8h2.6v2.5h0.1c1.2-2.2 3-3 4.7-3 0.7 0 1 0 1.5 0.2v2.8c-0.7-0.2-1.2-0.3-1.9-0.3 -2.6 0-4.4 1.5-4.4 4.5v7H366V146.8z"/>
  <path class="st0" d="M376.5 141.6h2.6v2.9h-2.6V141.6zM376.5 146.8h2.6v13.8h-2.6V146.8z"/>
  <path class="st0" d="M382.1 141.6h2.6v7.2h0.1c1.2-1.9 3.4-2.6 5.4-2.6 3.3 0 5.8 1.4 5.8 4.9v9.4h-2.6v-8.9c0-2-1.3-3.2-4.1-3.2 -2.4 0-4.5 1.4-4.5 4.1v7.9h-2.6V141.6z"/>
  <path class="st0" d="M401 154.4c0.2 2.8 2.7 4.4 5.1 4.4 1.5 0 3.6-0.5 4.4-2.4h2.8c-1.3 3.3-4.4 4.7-7.1 4.7 -5.4 0-8-3.4-8-7.4 0-4 2.6-7.4 8-7.4 3.6 0 7.5 2.1 7.5 7.8v0.3H401zM410.9 152.4c-0.4-2.5-2.3-3.9-4.8-3.9 -2.4 0-4.6 1.4-5 3.9H410.9z"/>
  <path class="st0" d="M428.2 158.8L428.2 158.8c-1.1 1.4-3.3 2.2-5.3 2.2 -4.2 0-7.5-2.7-7.5-7.3s3.3-7.3 7.5-7.3c2.1 0 4.2 0.7 5.2 2.2h0.1v-7.1h2.6v19h-2.6V158.8zM423.2 158.8c3.6 0 5.1-2.5 5.1-5.1 0-3.2-2-5.1-5.1-5.1 -3.1 0-5.1 1.9-5.1 5.1C418.2 156.3 419.7 158.8 423.2 158.8z"/>
  <path class="st0" d="M435.6 156.2c0 1.2 1 2.8 4.3 2.8 3.4 0 4.2-1.2 4.2-2.2 0-1-0.5-1.6-2.6-1.8l-4.3-0.6c-2-0.3-3.7-1.5-3.7-3.7 0-2.8 2.4-4.4 6.3-4.4 4.5 0 6.5 1.9 6.7 4.6h-2.6c-0.1-1.4-1.4-2.6-4.1-2.6 -1.7 0-3.6 0.5-3.6 2.1 0 0.9 0.4 1.4 2.3 1.7l3.7 0.5c3.5 0.5 4.8 1.7 4.8 3.7 0 3.2-2.7 4.7-6.9 4.7 -3.2 0-6.8-0.8-7.1-4.8H435.6z"/>
  <path class="st0" d="M450.4 142.5h2.6v4.2h3.9v2.1h-3.9v8.5c0 1.1 0.8 1.5 2.1 1.5 0.6 0 1.2-0.1 1.8-0.2v2.2c-0.9 0.2-1.9 0.2-2.9 0.2 -2.6 0-3.6-1.3-3.6-3.3v-8.9h-2.8v-2.1h2.8V142.5z"/>
  <path class="st0" d="M460.5 154.4c0.2 2.8 2.7 4.4 5.1 4.4 1.5 0 3.6-0.5 4.4-2.4h2.8c-1.3 3.3-4.4 4.7-7.1 4.7 -5.4 0-8-3.4-8-7.4 0-4 2.6-7.4 8-7.4 3.6 0 7.5 2.1 7.5 7.8v0.3H460.5zM470.4 152.4c-0.4-2.5-2.3-3.9-4.8-3.9 -2.4 0-4.6 1.4-5 3.9H470.4z"/>
  <path class="st0" d="M485.2 146.8h4l-6.5 5.2 7 8.6h-3.6l-5.5-6.9 -2.4 1.9v5h-2.6v-19h2.6v11.1L485.2 146.8z"/>
  <path class="st0" d="M491 146.8h2.6v2.1h0.1c1.2-1.9 3.4-2.6 5.4-2.6 3.3 0 5.8 1.4 5.8 4.9v9.4h-2.6v-8.9c0-2-1.3-3.2-4.1-3.2 -2.4 0-4.5 1.4-4.5 4.1v7.9H491V146.8z"/>
  <path class="st0" d="M515.2 146.3c5.4 0 8 3.4 8 7.4 0 4-2.6 7.4-8 7.4 -5.4 0-8-3.4-8-7.4C507.1 149.7 509.8 146.3 515.2 146.3zM515.2 148.5c-3.8 0-5.2 2.7-5.2 5.2 0 2.5 1.4 5.2 5.2 5.2s5.2-2.7 5.2-5.2C520.4 151.2 519 148.5 515.2 148.5z"/>
  <path class="st0" d="M525.5 141.6h2.6v19h-2.6V141.6z"/>
  <path class="st0" d="M538.5 146.3c5.4 0 8 3.4 8 7.4 0 4-2.6 7.4-8 7.4 -5.4 0-8-3.4-8-7.4C530.5 149.7 533.1 146.3 538.5 146.3zM538.5 148.5c-3.8 0-5.2 2.7-5.2 5.2 0 2.5 1.4 5.2 5.2 5.2 3.8 0 5.2-2.7 5.2-5.2C543.7 151.2 542.3 148.5 538.5 148.5z"/>
  <path class="st0" d="M561.1 146.8h2.6v12.6c0 4.9-2.4 6.9-8 6.9 -3 0-6.4-0.5-6.9-4.3h2.6c0.5 1.8 2.1 2.2 4.6 2.2 3.7 0 5.1-1.9 5.1-4.2v-2H561c-1.5 2.1-3.6 2.6-5.3 2.6 -3.7 0-7.6-2-7.6-7.1 0-5.1 3.9-7.1 7.5-7.1 2.3 0 4.3 0.8 5.4 2.3h0.1V146.8zM556 148.7c-3.2 0-5.1 2.1-5.1 4.9 0 2.8 1.9 4.9 5.1 4.9 3.2 0 5.1-2 5.1-4.9C561.1 150.8 559.2 148.7 556 148.7z"/>
  <path class="st0" d="M566.6 141.6h2.6v2.9h-2.6V141.6zM566.6 146.8h2.6v13.8h-2.6V146.8z"/>
  <polygon class="st0" points="516.4 42.9 528.4 28.3 524.2 28.3 514.3 40.4 "/>
  <polygon class="st0" points="494 65.1 493.8 65.3 495.8 67.9 496 67.6 "/>
  <polygon class="st0" points="507.4 53.8 505.4 51.2 505.2 51.5 507.2 54 "/>
  <polygon class="st0" points="500.6 62.1 498.5 59.5 498.3 59.8 500.4 62.3 "/>
  <polygon class="st0" points="502.9 59.3 500.8 56.8 500.6 57 502.7 59.5 "/>
  <polygon class="st0" points="505.2 56.5 503.1 54 502.9 54.2 505 56.8 "/>
  <polygon class="st0" points="498.3 64.9 496.2 62.3 496 62.6 498.1 65.1 "/>
  <polygon class="st0" points="512 48.2 509.9 45.7 509.7 45.9 511.8 48.4 "/>
  <polygon class="st0" points="509.7 51 507.6 48.4 507.4 48.7 509.5 51.2 "/>
  <polygon class="st0" points="514.3 45.4 512.2 42.9 512 43.1 514.1 45.7 "/>
  <polygon class="st0" points="503.1 65.1 502.9 65.3 505 67.9 505.2 67.6 "/>
  <polygon class="st0" points="520.9 48.4 537.5 28.3 533.3 28.3 518.8 45.9 "/>
  <polygon class="st0" points="518.6 51.2 518.8 51 516.8 48.4 516.6 48.7 "/>
  <polygon class="st0" points="507.4 64.9 505.4 62.3 505.2 62.6 507.2 65.1 "/>
  <polygon class="st0" points="500.8 67.9 500.6 68.1 502.7 70.6 502.9 70.4 "/>
  <polygon class="st0" points="516.4 54 516.6 53.8 514.5 51.2 514.3 51.5 "/>
  <polygon class="st0" points="514.3 56.5 512.2 54 512 54.2 514.1 56.8 "/>
  <polygon class="st0" points="498.5 70.6 498.3 70.9 500.4 73.4 500.6 73.2 "/>
  <polygon class="st0" points="509.7 62.1 507.6 59.5 507.4 59.8 509.5 62.3 "/>
  <polygon class="st0" points="512 59.3 509.9 56.8 509.7 57 511.8 59.5 "/>
  <polygon class="st0" points="512.2 65.1 512 65.3 514.1 67.9 514.3 67.6 "/>
  <polygon class="st0" points="525.5 54 546.6 28.3 542.4 28.3 523.4 51.5 "/>
  <polygon class="st0" points="505.4 73.4 505.2 73.7 507.2 76.2 507.4 76 "/>
  <polygon class="st0" points="503.1 76.2 502.9 76.4 505 79 505.2 78.7 "/>
  <polygon class="st0" points="518.6 62.3 518.8 62.1 516.8 59.5 516.6 59.8 "/>
  <polygon class="st0" points="523.2 56.8 523.4 56.5 521.3 54 521.1 54.2 "/>
  <polygon class="st0" points="516.4 65.1 516.6 64.9 514.5 62.3 514.3 62.6 "/>
  <polygon class="st0" points="509.9 67.9 509.7 68.1 511.8 70.6 512 70.4 "/>
  <polygon class="st0" points="507.6 70.6 507.4 70.9 509.5 73.4 509.7 73.2 "/>
  <polygon class="st0" points="520.9 59.5 521.1 59.3 519 56.8 518.8 57 "/>
  <polygon class="st0" points="530 59.5 555.7 28.3 551.6 28.3 528 57 "/>
  <polygon class="st0" points="516.6 70.9 518.6 73.4 518.8 73.2 516.8 70.6 "/>
  <polygon class="st0" points="514.3 73.7 516.4 76.2 516.6 76 514.5 73.4 "/>
  <polygon class="st0" points="527.8 62.3 528 62.1 525.9 59.5 525.7 59.8 "/>
  <polygon class="st0" points="507.6 81.8 507.4 82 509.5 84.5 509.7 84.3 "/>
  <polygon class="st0" points="525.5 65.1 525.7 64.9 523.6 62.3 523.4 62.6 "/>
  <polygon class="st0" points="512.2 76.2 512 76.4 514.1 79 514.3 78.7 "/>
  <polygon class="st0" points="521.1 65.3 523.2 67.9 523.4 67.6 521.3 65.1 "/>
  <polygon class="st0" points="518.8 68.1 520.9 70.6 521.1 70.4 519 67.9 "/>
  <polygon class="st0" points="509.9 79 509.7 79.2 511.8 81.8 512 81.5 "/>
  <polygon class="st0" points="509.9 84.5 509.7 84.8 511.8 87.3 512 87.1 "/>
  <polygon class="st0" points="512.2 81.8 512 82 514.1 84.5 514.3 84.3 "/>
  <polygon class="st0" points="523.4 68.1 525.5 70.6 525.7 70.4 523.6 67.9 "/>
  <polygon class="st0" points="525.7 65.3 527.8 67.9 528 67.6 525.9 65.1 "/>
  <polygon class="st0" points="530 65.1 530.2 64.9 528.2 62.3 528 62.6 "/>
  <polygon class="st0" points="521.1 70.9 523.2 73.4 523.4 73.2 521.3 70.6 "/>
  <polygon class="st0" points="514.3 79.2 516.4 81.8 516.6 81.5 514.5 79 "/>
  <polygon class="st0" points="532.3 62.3 560.3 28.3 556.1 28.3 530.2 59.8 "/>
  <polygon class="st0" points="516.6 76.4 518.6 79 518.8 78.7 516.8 76.2 "/>
  <polygon class="st0" points="518.8 73.7 520.9 76.2 521.1 76 519 73.4 "/>
  <polygon class="st0" points="523.4 73.7 525.5 76.2 525.7 76 523.6 73.4 "/>
  <polygon class="st0" points="516.6 82 518.6 84.5 518.8 84.3 516.8 81.8 "/>
  <polygon class="st0" points="518.8 79.2 520.9 81.8 521.1 81.5 519 79 "/>
  <polygon class="st0" points="534.6 65.1 564.8 28.3 560.7 28.3 532.5 62.6 "/>
  <polygon class="st0" points="512.2 87.3 512 87.5 514.1 90.1 514.3 89.8 "/>
  <polygon class="st0" points="514.3 84.8 516.4 87.3 516.6 87.1 514.5 84.5 "/>
  <polygon class="st0" points="525.7 70.9 527.8 73.4 528 73.2 525.9 70.6 "/>
  <polygon class="st0" points="528 68.1 530 70.6 530.2 70.4 528.2 67.9 "/>
  <polygon class="st0" points="530.2 65.3 532.3 67.9 532.5 67.6 530.4 65.1 "/>
  <polygon class="st0" points="521.1 76.4 523.2 79 523.4 78.7 521.3 76.2 "/>
  <polygon class="st0" points="523.4 79.2 525.5 81.8 525.7 81.5 523.6 79 "/>
  <polygon class="st0" points="514.3 90.3 516.4 92.9 516.6 92.6 514.5 90.1 "/>
  <polygon class="st0" points="528 73.7 530 76.2 530.2 76 528.2 73.4 "/>
  <polygon class="st0" points="525.7 76.4 527.8 79 528 78.7 525.9 76.2 "/>
  <polygon class="st0" points="521.1 82 523.2 84.5 523.4 84.3 521.3 81.8 "/>
  <polygon class="st0" points="530.2 70.9 532.3 73.4 532.5 73.2 530.4 70.6 "/>
  <polygon class="st0" points="516.6 87.5 518.6 90.1 518.8 89.8 516.8 87.3 "/>
  <polygon class="st0" points="518.8 84.8 520.9 87.3 521.1 87.1 519 84.5 "/>
  <polygon class="st0" points="565.2 28.3 534.8 65.3 536.9 67.9 569.4 28.3 "/>
  <polygon class="st0" points="532.5 68.1 534.6 70.6 534.8 70.4 532.7 67.9 "/>
  <polygon class="st0" points="521.3 54 523.4 51.5 523.2 51.2 521.1 53.8 "/>
  <polygon class="st0" points="519 51.2 521.1 48.7 520.9 48.4 518.8 51 "/>
  <polygon class="st0" points="528.2 62.3 530.2 59.8 530 59.5 528 62.1 "/>
  <polygon class="st0" points="516.8 48.4 518.8 45.9 518.6 45.7 516.6 48.2 "/>
  <polygon class="st0" points="523.6 56.8 525.7 54.2 525.5 54 523.4 56.5 "/>
  <polygon class="st0" points="514.3 40.4 504.4 28.3 500.2 28.3 512.2 42.9 "/>
  <polygon class="st0" points="514.5 45.7 516.6 43.1 516.4 42.9 514.3 45.4 "/>
  <polygon class="st0" points="530.4 65.1 532.5 62.6 532.3 62.3 530.2 64.9 "/>
  <polygon class="st0" points="525.9 59.5 528 57 527.8 56.8 525.7 59.3 "/>
  <polygon class="st0" points="532.5 67.6 532.7 67.9 534.8 65.3 534.6 65.1 "/>
  <polygon class="st0" points="516.4 42.9 514.3 40.4 512.2 42.9 514.3 45.4 "/>
  <polygon class="st0" points="516.6 48.2 518.6 45.7 516.6 43.1 514.5 45.7 "/>
  <polygon class="st0" points="518.8 51 520.9 48.4 518.8 45.9 516.8 48.4 "/>
  <polygon class="st0" points="521.1 53.8 523.2 51.2 521.1 48.7 519 51.2 "/>
  <polygon class="st0" points="525.7 59.3 527.8 56.8 525.7 54.2 523.6 56.8 "/>
  <polygon class="st0" points="528 62.1 530 59.5 528 57 525.9 59.5 "/>
  <polygon class="st0" points="530.2 64.9 532.3 62.3 530.2 59.8 528.2 62.3 "/>
  <polygon class="st0" points="530.4 65.1 532.5 67.6 534.6 65.1 532.5 62.6 "/>
  <polygon class="st0" points="532.7 67.9 534.8 70.4 536.9 67.9 534.8 65.3 "/>
  <polygon class="st0" points="514.1 45.7 512 43.1 509.9 45.7 512 48.2 "/>
  <polygon class="st0" points="516.6 53.8 518.6 51.2 516.6 48.7 514.5 51.2 "/>
  <polygon class="st0" points="521.1 59.3 523.2 56.8 521.1 54.2 519 56.8 "/>
  <polygon class="st0" points="525.7 64.9 527.8 62.3 525.7 59.8 523.6 62.3 "/>
  <polygon class="st0" points="525.9 65.1 528 67.6 530 65.1 528 62.6 "/>
  <polygon class="st0" points="528.2 67.9 530.2 70.4 532.3 67.9 530.2 65.3 "/>
  <polygon class="st0" points="530.4 70.6 532.5 73.2 534.6 70.6 532.5 68.1 "/>
  <polygon class="st0" points="525.7 70.4 525.9 70.6 528 68.1 527.8 67.9 "/>
  <polygon class="st0" points="509.7 45.9 495.2 28.3 491.1 28.3 507.6 48.4 "/>
  <polygon class="st0" points="528 73.2 528.2 73.4 530.2 70.9 530 70.6 "/>
  <polygon class="st0" points="521.3 65.1 523.4 62.6 523.2 62.3 521.1 64.9 "/>
  <polygon class="st0" points="523.4 67.6 523.6 67.9 525.7 65.3 525.5 65.1 "/>
  <polygon class="st0" points="519 62.3 521.1 59.8 520.9 59.5 518.8 62.1 "/>
  <polygon class="st0" points="512 48.7 511.8 48.4 509.7 51 509.9 51.2 "/>
  <polygon class="st0" points="516.8 59.5 518.8 57 518.6 56.8 516.6 59.3 "/>
  <polygon class="st0" points="514.5 56.8 516.6 54.2 516.4 54 514.3 56.5 "/>
  <polygon class="st0" points="514.3 51.5 514.1 51.2 512 53.8 512.2 54 "/>
  <polygon class="st0" points="511.8 48.4 509.7 45.9 507.6 48.4 509.7 51 "/>
  <polygon class="st0" points="514.1 51.2 512 48.7 509.9 51.2 512 53.8 "/>
  <polygon class="st0" points="516.4 54 514.3 51.5 512.2 54 514.3 56.5 "/>
  <polygon class="st0" points="516.6 59.3 518.6 56.8 516.6 54.2 514.5 56.8 "/>
  <polygon class="st0" points="518.8 62.1 520.9 59.5 518.8 57 516.8 59.5 "/>
  <polygon class="st0" points="521.1 64.9 523.2 62.3 521.1 59.8 519 62.3 "/>
  <polygon class="st0" points="521.3 65.1 523.4 67.6 525.5 65.1 523.4 62.6 "/>
  <polygon class="st0" points="523.6 67.9 525.7 70.4 527.8 67.9 525.7 65.3 "/>
  <polygon class="st0" points="528.2 73.4 530.2 76 532.3 73.4 530.2 70.9 "/>
  <polygon class="st0" points="507.4 48.7 490.7 28.3 486.5 28.3 505.4 51.2 "/>
  <polygon class="st0" points="521.1 70.4 521.3 70.6 523.4 68.1 523.2 67.9 "/>
  <polygon class="st0" points="523.4 73.2 523.6 73.4 525.7 70.9 525.5 70.6 "/>
  <polygon class="st0" points="512 54.2 511.8 54 509.7 56.5 509.9 56.8 "/>
  <polygon class="st0" points="509.7 51.5 509.5 51.2 507.4 53.8 507.6 54 "/>
  <polygon class="st0" points="518.8 67.6 519 67.9 521.1 65.3 520.9 65.1 "/>
  <polygon class="st0" points="514.5 62.3 516.6 59.8 516.4 59.5 514.3 62.1 "/>
  <polygon class="st0" points="516.8 65.1 518.8 62.6 518.6 62.3 516.6 64.9 "/>
  <polygon class="st0" points="514.3 57 514.1 56.8 512 59.3 512.2 59.5 "/>
  <polygon class="st0" points="525.7 76 525.9 76.2 528 73.7 527.8 73.4 "/>
  <polygon class="st0" points="509.5 51.2 507.4 48.7 505.4 51.2 507.4 53.8 "/>
  <polygon class="st0" points="511.8 54 509.7 51.5 507.6 54 509.7 56.5 "/>
  <polygon class="st0" points="516.4 59.5 514.3 57 512.2 59.5 514.3 62.1 "/>
  <polygon class="st1" points="516.6 64.9 518.6 62.3 516.6 59.8 514.5 62.3 "/>
  <polygon class="st0" points="516.8 65.1 518.8 67.6 520.9 65.1 518.8 62.6 "/>
  <polygon class="st0" points="519 67.9 521.1 70.4 523.2 67.9 521.1 65.3 "/>
  <polygon class="st0" points="521.3 70.6 523.4 73.2 525.5 70.6 523.4 68.1 "/>
  <polygon class="st0" points="523.6 73.4 525.7 76 527.8 73.4 525.7 70.9 "/>
  <polygon class="st0" points="525.9 76.2 528 78.7 530 76.2 528 73.7 "/>
  <polygon class="st0" points="507.2 54 505.2 51.5 503.1 54 505.2 56.5 "/>
  <polygon class="st0" points="511.8 59.5 509.7 57 507.6 59.5 509.7 62.1 "/>
  <polygon class="st0" points="512.2 65.1 514.3 67.6 516.4 65.1 514.3 62.6 "/>
  <polygon class="st0" points="516.8 70.6 518.8 73.2 520.9 70.6 518.8 68.1 "/>
  <polygon class="st0" points="519 73.4 521.1 76 523.2 73.4 521.1 70.9 "/>
  <polygon class="st0" points="521.3 76.2 523.4 78.7 525.5 76.2 523.4 73.7 "/>
  <polygon class="st0" points="523.6 79 525.7 81.5 527.8 79 525.7 76.4 "/>
  <polygon class="st0" points="516.6 76 516.8 76.2 518.8 73.7 518.6 73.4 "/>
  <polygon class="st0" points="511.8 65.1 509.7 67.6 509.9 67.9 512 65.3 "/>
  <polygon class="st0" points="507.4 59.8 507.2 59.5 505.2 62.1 505.4 62.3 "/>
  <polygon class="st0" points="514.3 73.2 514.5 73.4 516.6 70.9 516.4 70.6 "/>
  <polygon class="st0" points="521.1 81.5 521.3 81.8 523.4 79.2 523.2 79 "/>
  <polygon class="st0" points="514.1 67.9 512 70.4 512.2 70.6 514.3 68.1 "/>
  <polygon class="st0" points="505.2 57 505 56.8 502.9 59.3 503.1 59.5 "/>
  <polygon class="st0" points="518.8 78.7 519 79 521.1 76.4 520.9 76.2 "/>
  <polygon class="st0" points="509.7 62.6 509.5 62.3 507.4 64.9 507.6 65.1 "/>
  <polygon class="st0" points="502.9 54.2 481.6 28.3 477.4 28.3 500.8 56.8 "/>
  <polygon class="st0" points="505 56.8 502.9 54.2 500.8 56.8 502.9 59.3 "/>
  <polygon class="st0" points="507.2 59.5 505.2 57 503.1 59.5 505.2 62.1 "/>
  <polygon class="st0" points="509.5 62.3 507.4 59.8 505.4 62.3 507.4 64.9 "/>
  <polygon class="st0" points="509.7 62.6 507.6 65.1 509.7 67.6 511.8 65.1 "/>
  <polygon class="st0" points="512 65.3 509.9 67.9 512 70.4 514.1 67.9 "/>
  <polygon class="st0" points="512.2 70.6 514.3 73.2 516.4 70.6 514.3 68.1 "/>
  <polygon class="st0" points="514.5 73.4 516.6 76 518.6 73.4 516.6 70.9 "/>
  <polygon class="st1" points="516.8 76.2 518.8 78.7 520.9 76.2 518.8 73.7 "/>
  <polygon class="st0" points="519 79 521.1 81.5 523.2 79 521.1 76.4 "/>
  <polygon class="st0" points="502.7 59.5 500.6 57 498.5 59.5 500.6 62.1 "/>
  <polygon class="st0" points="505.2 62.6 503.1 65.1 505.2 67.6 507.2 65.1 "/>
  <polygon class="st0" points="509.7 68.1 507.6 70.6 509.7 73.2 511.8 70.6 "/>
  <polygon class="st0" points="512.2 76.2 514.3 78.7 516.4 76.2 514.3 73.7 "/>
  <polygon class="st0" points="514.5 79 516.6 81.5 518.6 79 516.6 76.4 "/>
  <polygon class="st0" points="519 84.5 521.1 87.1 523.2 84.5 521.1 82 "/>
  <polygon class="st0" points="498.3 59.8 472.4 28.3 468.3 28.3 496.2 62.3 "/>
  <polygon class="st0" points="511.8 76.2 509.7 78.7 509.9 79 512 76.4 "/>
  <polygon class="st0" points="514.1 79 512 81.5 512.2 81.8 514.3 79.2 "/>
  <polygon class="st0" points="502.7 65.1 500.6 67.6 500.8 67.9 502.9 65.3 "/>
  <polygon class="st0" points="500.6 62.6 500.4 62.3 498.3 64.9 498.5 65.1 "/>
  <polygon class="st0" points="516.6 87.1 516.8 87.3 518.8 84.8 518.6 84.5 "/>
  <polygon class="st0" points="509.5 73.4 507.4 76 507.6 76.2 509.7 73.7 "/>
  <polygon class="st0" points="514.3 84.3 514.5 84.5 516.6 82 516.4 81.8 "/>
  <polygon class="st0" points="505 67.9 502.9 70.4 503.1 70.6 505.2 68.1 "/>
  <polygon class="st0" points="507.2 70.6 505.2 73.2 505.4 73.4 507.4 70.9 "/>
  <polygon class="st0" points="500.4 62.3 498.3 59.8 496.2 62.3 498.3 64.9 "/>
  <polygon class="st0" points="500.4 62.3 498.3 59.8 496.2 62.3 498.3 64.9 "/>
  <polygon class="st0" points="500.6 62.6 498.5 65.1 500.6 67.6 502.7 65.1 "/>
  <polygon class="st0" points="500.6 62.6 498.5 65.1 500.6 67.6 502.7 65.1 "/>
  <polygon class="st0" points="502.9 65.3 500.8 67.9 502.9 70.4 505 67.9 "/>
  <polygon class="st0" points="502.9 65.3 500.8 67.9 502.9 70.4 505 67.9 "/>
  <polygon class="st0" points="505.2 68.1 503.1 70.6 505.2 73.2 507.2 70.6 "/>
  <polygon class="st0" points="505.2 68.1 503.1 70.6 505.2 73.2 507.2 70.6 "/>
  <polygon class="st1" points="507.4 70.9 505.4 73.4 507.4 76 509.5 73.4 "/>
  <polygon class="st0" points="509.7 73.7 507.6 76.2 509.7 78.7 511.8 76.2 "/>
  <polygon class="st0" points="509.7 73.7 507.6 76.2 509.7 78.7 511.8 76.2 "/>
  <polygon class="st0" points="512 76.4 509.9 79 512 81.5 514.1 79 "/>
  <polygon class="st1" points="512 76.4 509.9 79 512 81.5 514.1 79 "/>
  <polygon class="st1" points="512.2 81.8 514.3 84.3 516.4 81.8 514.3 79.2 "/>
  <polygon class="st0" points="514.5 84.5 516.6 87.1 518.6 84.5 516.6 82 "/>
  <polygon class="st0" points="514.5 84.5 516.6 87.1 518.6 84.5 516.6 82 "/>
  <polygon class="st0" points="516.8 87.3 518.8 89.8 520.9 87.3 518.8 84.8 "/>
  <polygon class="st0" points="516.8 87.3 518.8 89.8 520.9 87.3 518.8 84.8 "/>
  <polygon class="st0" points="496 62.6 494 65.1 496 67.6 498.1 65.1 "/>
  <polygon class="st0" points="500.6 68.1 498.5 70.6 500.6 73.2 502.7 70.6 "/>
  <polygon class="st0" points="505.2 73.7 503.1 76.2 505.2 78.7 507.2 76.2 "/>
  <polygon class="st0" points="512 82 509.9 84.5 512 87.1 514.1 84.5 "/>
  <polygon class="st0" points="514.5 90.1 516.6 92.6 518.6 90.1 516.6 87.5 "/>
  <polygon class="st0" points="509.5 84.5 507.4 87.1 507.6 87.3 509.7 84.8 "/>
  <polygon class="st0" points="514.1 90.1 512 92.6 512.2 92.9 514.3 90.3 "/>
  <polygon class="st0" points="507.2 81.8 505.2 84.3 505.4 84.5 507.4 82 "/>
  <polygon class="st0" points="511.8 87.3 509.7 89.8 509.9 90.1 512 87.5 "/>
  <polygon class="st0" points="505 79 502.9 81.5 503.1 81.8 505.2 79.2 "/>
  <polygon class="st0" points="498.1 70.6 496 73.2 496.2 73.4 498.3 70.9 "/>
  <polygon class="st0" points="463.3 28.3 459.2 28.3 491.7 67.9 493.8 65.3 "/>
  <polygon class="st0" points="495.8 67.9 493.8 70.4 494 70.6 496 68.1 "/>
  <polygon class="st0" points="500.4 73.4 498.3 76 498.5 76.2 500.6 73.7 "/>
  <polygon class="st0" points="502.7 76.2 500.6 78.7 500.8 79 502.9 76.4 "/>
  <polygon class="st0" points="493.8 65.3 491.7 67.9 493.8 70.4 495.8 67.9 "/>
  <polygon class="st0" points="496 68.1 494 70.6 496 73.2 498.1 70.6 "/>
  <polygon class="st1" points="498.3 70.9 496.2 73.4 498.3 76 500.4 73.4 "/>
  <polygon class="st0" points="500.6 73.7 498.5 76.2 500.6 78.7 502.7 76.2 "/>
  <polygon class="st0" points="502.9 76.4 500.8 79 502.9 81.5 505 79 "/>
  <polygon class="st0" points="505.2 79.2 503.1 81.8 505.2 84.3 507.2 81.8 "/>
  <polygon class="st0" points="507.4 82 505.4 84.5 507.4 87.1 509.5 84.5 "/>
  <polygon class="st0" points="512 87.5 509.9 90.1 512 92.6 514.1 90.1 "/>
  <polygon class="st0" points="512.2 92.9 514.3 95.4 516.4 92.9 514.3 90.3 "/>
  <polygon class="st0" points="493.8 70.4 491.7 67.9 458 108.8 462.2 108.8 "/>
  <polygon class="st0" points="498.3 76 496.2 73.4 467.2 108.8 471.3 108.8 "/>
  <polygon class="st0" points="502.9 81.5 500.8 79 476.3 108.8 480.4 108.8 "/>
  <polygon class="st0" points="507.4 87.1 505.4 84.5 485.4 108.8 489.6 108.8 "/>
  <polygon class="st0" points="509.7 89.8 507.6 87.3 490 108.8 494.1 108.8 "/>
  <polygon class="st0" points="512 92.6 509.9 90.1 494.5 108.8 498.7 108.8 "/>
  <polygon class="st0" points="514.3 95.4 512.2 92.9 499.1 108.8 503.2 108.8 "/>
  <polygon class="st0" points="536.9 67.9 534.8 70.4 566.4 108.8 570.5 108.8 "/>
  <polygon class="st0" points="532.3 73.4 530.2 76 557.2 108.8 561.4 108.8 "/>
  <polygon class="st0" points="530 76.2 528 78.7 552.7 108.8 556.8 108.8 "/>
  <polygon class="st0" points="525.5 81.8 523.4 84.3 543.6 108.8 547.7 108.8 "/>
  <polygon class="st0" points="520.9 87.3 518.8 89.8 534.4 108.8 538.6 108.8 "/>
  <polygon class="st1" points="516.4 48.4 516.6 48.2 514.5 45.7 514.3 45.9 "/>
  <polygon class="st1" points="518.6 45.7 532.9 28.3 528.8 28.3 516.6 43.1 "/>
  <polygon class="st1" points="505.2 62.1 503.1 59.5 502.9 59.8 505 62.3 "/>
  <polygon class="st1" points="496.2 67.9 496 68.1 498.1 70.6 498.3 70.4 "/>
  <polygon class="st1" points="512 53.8 509.9 51.2 509.7 51.5 511.8 54 "/>
  <polygon class="st1" points="509.7 56.5 507.6 54 507.4 54.2 509.5 56.8 "/>
  <polygon class="st1" points="514.3 51 512.2 48.4 512 48.7 514.1 51.2 "/>
  <polygon class="st1" points="498.5 65.1 498.3 65.3 500.4 67.9 500.6 67.6 "/>
  <polygon class="st1" points="502.9 64.9 500.8 62.3 500.6 62.6 502.7 65.1 "/>
  <polygon class="st1" points="507.4 59.3 505.4 56.8 505.2 57 507.2 59.5 "/>
  <polygon class="st1" points="500.8 73.4 500.6 73.7 502.7 76.2 502.9 76 "/>
  <polygon class="st1" points="505.4 67.9 505.2 68.1 507.2 70.6 507.4 70.4 "/>
  <polygon class="st1" points="507.6 65.1 507.4 65.3 509.5 67.9 509.7 67.6 "/>
  <polygon class="st1" points="516.4 59.5 516.6 59.3 514.5 56.8 514.3 57 "/>
  <polygon class="st1" points="518.6 56.8 518.8 56.5 516.8 54 516.6 54.2 "/>
  <polygon class="st1" points="503.1 70.6 502.9 70.9 505 73.4 505.2 73.2 "/>
  <polygon class="st1" points="520.9 54 521.1 53.8 519 51.2 518.8 51.5 "/>
  <polygon class="st1" points="512 64.9 509.9 62.3 509.7 62.6 511.8 65.1 "/>
  <polygon class="st1" points="514.3 62.1 512.2 59.5 512 59.8 514.1 62.3 "/>
  <polygon class="st1" points="523.2 51.2 542 28.3 537.9 28.3 521.1 48.7 "/>
  <polygon class="st1" points="507.6 76.2 507.4 76.4 509.5 79 509.7 78.7 "/>
  <polygon class="st1" points="512.2 70.6 512 70.9 514.1 73.4 514.3 73.2 "/>
  <polygon class="st1" points="509.9 73.4 509.7 73.7 511.8 76.2 512 76 "/>
  <polygon class="st1" points="520.9 65.1 521.1 64.9 519 62.3 518.8 62.6 "/>
  <polygon class="st1" points="525.5 59.5 525.7 59.3 523.6 56.8 523.4 57 "/>
  <polygon class="st1" points="505.4 79 505.2 79.2 507.2 81.8 507.4 81.5 "/>
  <polygon class="st1" points="527.8 56.8 551.2 28.3 547 28.3 525.7 54.2 "/>
  <polygon class="st1" points="516.6 65.3 518.6 67.9 518.8 67.6 516.8 65.1 "/>
  <polygon class="st1" points="523.2 62.3 523.4 62.1 521.3 59.5 521.1 59.8 "/>
  <polygon class="st1" points="514.3 68.1 516.4 70.6 516.6 70.4 514.5 67.9 "/>
  <polygon class="st1" points="523.4 56.5 525.5 54 523.4 51.5 521.3 54 "/>
  <polygon class="st1" points="514.3 45.9 514.1 45.7 512 48.2 512.2 48.4 "/>
  <polygon class="st1" points="519 56.8 521.1 54.2 520.9 54 518.8 56.5 "/>
  <polygon class="st1" points="521.3 59.5 523.4 57 523.2 56.8 521.1 59.3 "/>
  <polygon class="st1" points="512 43.1 499.8 28.3 495.6 28.3 509.9 45.7 "/>
  <polygon class="st1" points="528 67.6 528.2 67.9 530.2 65.3 530 65.1 "/>
  <polygon class="st1" points="530.2 70.4 530.4 70.6 532.5 68.1 532.3 67.9 "/>
  <polygon class="st1" points="523.6 62.3 525.7 59.8 525.5 59.5 523.4 62.1 "/>
  <polygon class="st1" points="525.9 65.1 528 62.6 527.8 62.3 525.7 64.9 "/>
  <polygon class="st1" points="514.5 51.2 516.6 48.7 516.4 48.4 514.3 51 "/>
  <polygon class="st1" points="516.8 54 518.8 51.5 518.6 51.2 516.6 53.8 "/>
  <polygon class="st1" points="516.4 48.4 514.3 45.9 512.2 48.4 514.3 51 "/>
  <polygon class="st1" points="518.8 56.5 520.9 54 518.8 51.5 516.8 54 "/>
  <polygon class="st1" points="523.4 62.1 525.5 59.5 523.4 57 521.3 59.5 "/>
  <polygon class="st1" points="525.9 70.6 528 73.2 530 70.6 528 68.1 "/>
  <polygon class="st1" points="514.1 56.8 512 54.2 509.9 56.8 512 59.3 "/>
  <polygon class="st1" points="523.4 78.7 523.6 79 525.7 76.4 525.5 76.2 "/>
  <polygon class="st1" points="512 59.8 511.8 59.5 509.7 62.1 509.9 62.3 "/>
  <polygon class="st1" points="521.1 76 521.3 76.2 523.4 73.7 523.2 73.4 "/>
  <polygon class="st1" points="514.3 67.6 514.5 67.9 516.6 65.3 516.4 65.1 "/>
  <polygon class="st1" points="518.8 73.2 519 73.4 521.1 70.9 520.9 70.6 "/>
  <polygon class="st1" points="516.6 70.4 516.8 70.6 518.8 68.1 518.6 67.9 "/>
  <polygon class="st1" points="514.3 62.6 514.1 62.3 512 64.9 512.2 65.1 "/>
  <polygon class="st1" points="505.2 51.5 486.1 28.3 482 28.3 503.1 54 "/>
  <polygon class="st1" points="507.4 54.2 507.2 54 505.2 56.5 505.4 56.8 "/>
  <polygon class="st1" points="509.7 57 509.5 56.8 507.4 59.3 507.6 59.5 "/>
  <polygon class="st1" points="509.5 56.8 507.4 54.2 505.4 56.8 507.4 59.3 "/>
  <polygon class="st1" points="514.1 62.3 512 59.8 509.9 62.3 512 64.9 "/>
  <polygon class="st1" points="514.5 67.9 516.6 70.4 518.6 67.9 516.6 65.3 "/>
  <polygon class="st1" points="521.3 81.8 523.4 84.3 525.5 81.8 523.4 79.2 "/>
  <polygon class="st1" points="518.8 84.3 519 84.5 521.1 82 520.9 81.8 "/>
  <polygon class="st1" points="505.2 62.6 505 62.3 502.9 64.9 503.1 65.1 "/>
  <polygon class="st1" points="514.3 78.7 514.5 79 516.6 76.4 516.4 76.2 "/>
  <polygon class="st1" points="509.5 67.9 507.4 70.4 507.6 70.6 509.7 68.1 "/>
  <polygon class="st1" points="516.6 81.5 516.8 81.8 518.8 79.2 518.6 79 "/>
  <polygon class="st1" points="500.6 57 477 28.3 472.8 28.3 498.5 59.5 "/>
  <polygon class="st1" points="507.2 65.1 505.2 67.6 505.4 67.9 507.4 65.3 "/>
  <polygon class="st1" points="502.9 59.8 502.7 59.5 500.6 62.1 500.8 62.3 "/>
  <polygon class="st1" points="514.1 73.4 512 76 512.2 76.2 514.3 73.7 "/>
  <polygon class="st1" points="511.8 70.6 509.7 73.2 509.9 73.4 512 70.9 "/>
  <polygon class="st1" points="505 62.3 502.9 59.8 500.8 62.3 502.9 64.9 "/>
  <polygon class="st1" points="507.4 65.3 505.4 67.9 507.4 70.4 509.5 67.9 "/>
  <polygon class="st1" points="512 70.9 509.9 73.4 512 76 514.1 73.4 "/>
  <polygon class="st1" points="516.8 81.8 518.8 84.3 520.9 81.8 518.8 79.2 "/>
  <polygon class="st1" points="507.4 70.9 505.4 73.4 507.4 76 509.5 73.4 "/>
  <polygon class="st1" points="512.2 81.8 514.3 84.3 516.4 81.8 514.3 79.2 "/>
  <polygon class="st1" points="502.7 70.6 500.6 73.2 500.8 73.4 502.9 70.9 "/>
  <polygon class="st1" points="498.1 65.1 496 67.6 496.2 67.9 498.3 65.3 "/>
  <polygon class="st1" points="514.1 84.5 512 87.1 512.2 87.3 514.3 84.8 "/>
  <polygon class="st1" points="511.8 81.8 509.7 84.3 509.9 84.5 512 82 "/>
  <polygon class="st1" points="514.3 89.8 514.5 90.1 516.6 87.5 516.4 87.3 "/>
  <polygon class="st1" points="500.4 67.9 498.3 70.4 498.5 70.6 500.6 68.1 "/>
  <polygon class="st1" points="505 73.4 502.9 76 503.1 76.2 505.2 73.7 "/>
  <polygon class="st1" points="507.2 76.2 505.2 78.7 505.4 79 507.4 76.4 "/>
  <polygon class="st1" points="509.5 79 507.4 81.5 507.6 81.8 509.7 79.2 "/>
  <polygon class="st1" points="496 62.6 467.9 28.3 463.7 28.3 494 65.1 "/>
  <polygon class="st1" points="498.3 65.3 496.2 67.9 498.3 70.4 500.4 67.9 "/>
  <polygon class="st1" points="502.9 70.9 500.8 73.4 502.9 76 505 73.4 "/>
  <polygon class="st1" points="507.4 76.4 505.4 79 507.4 81.5 509.5 79 "/>
  <polygon class="st0" points="509.7 79.2 507.6 81.8 509.7 84.3 511.8 81.8 "/>
  <polygon class="st1" points="512.2 87.3 514.3 89.8 516.4 87.3 514.3 84.8 "/>
  <polygon class="st1" points="509.7 84.8 507.6 87.3 509.7 89.8 511.8 87.3 "/>
  <polygon class="st1" points="496 73.2 494 70.6 462.6 108.8 466.8 108.8 "/>
  <polygon class="st1" points="500.6 78.7 498.5 76.2 471.7 108.8 475.9 108.8 "/>
  <polygon class="st1" points="505.2 84.3 503.1 81.8 480.8 108.8 485 108.8 "/>
  <polygon class="st1" points="534.6 70.6 532.5 73.2 561.8 108.8 566 108.8 "/>
  <polygon class="st1" points="527.8 79 525.7 81.5 548.1 108.8 552.3 108.8 "/>
  <polygon class="st1" points="523.2 84.5 521.1 87.1 539 108.8 543.2 108.8 "/>
  <polygon class="st1" points="518.6 90.1 516.6 92.6 529.9 108.8 534 108.8 "/>
  <polygon class="st0" points="529.5 108.8 516.4 92.9 514.3 95.4 525.3 108.8 "/>
</svg>
