<svg xmlns="http://www.w3.org/2000/svg" xmlns:xlink="http://www.w3.org/1999/xlink" x="0px" y="0px" width="100%"
	 viewBox="-370 248.3 100 100">
<g>
	<path d="M-300.7,267.8c-3.8-4-8.3-6.6-13.6-7.7v-3.8l-4-4h-4.8l-4,4v3.8c-5.2,1.1-9.8,3.7-13.6,7.7c-14.7,15.6-13.3,47.1-13.2,48.7
		v22.7c0,3.3,2.8,4.5,4.2,4.7l57.9,0l0,0c1.5-0.2,4.2-1.4,4.2-4.7v-22.6C-287.4,314.8-285.9,283.3-300.7,267.8z M-317.8,254.9l2,2
		v2.9c-0.7-0.1-1.5-0.2-2.2-0.3L-317.8,254.9z M-321.7,257.1h2.1l-0.1,2.3c-0.3,0-0.6,0-0.9,0c-0.3,0-0.7,0-1,0L-321.7,257.1z
		 M-319.4,253.9l-0.1,1.6h-2.3l-0.1-1.6H-319.4z M-325.5,256.9l2-2l0.2,4.6c-0.7,0.1-1.5,0.1-2.2,0.3V256.9z M-289.1,316.4l0,22.7
		c0,2.6-2.3,3-2.7,3.1h-57.6c-0.4-0.1-2.7-0.5-2.7-3.1v-22.7l0,0c0,0,0-0.4,0-1.1h3.2l0-0.9c0-0.3-1.5-29.2,11.5-42.9
		c4.5-4.7,10.2-7.1,17-7.1c6.8,0,12.5,2.4,16.9,7.1c12.9,13.7,11.5,42.6,11.5,42.9l0,0.9h3.2C-289.1,316-289.1,316.4-289.1,316.4z
		 M-289.1,313.7h-1.5c0.1-2.2,0.1-8.5-0.9-15.8c-2.1-15.3-7.2-23.4-11.1-27.5c-4.8-5-10.9-7.6-18.1-7.6c-7.3,0-13.4,2.6-18.1,7.6
		c-3.9,4.1-9,12.2-11.1,27.5c-1,7.3-1,13.5-0.9,15.8l-1.5,0c0-3.2,0.1-8.9,1-15.3c2.3-16.4,7.7-25.1,11.8-29.4
		c3.5-3.7,7.6-6.1,12.4-7.2c1.8-0.4,3.6-0.6,5.5-0.7c0.3,0,0.6,0,0.9,0c0.3,0,0.6,0,0.8,0c1.9,0.1,3.8,0.3,5.6,0.7
		c4.8,1.1,8.9,3.5,12.4,7.2c7.5,7.9,10.5,20.3,11.8,29.4C-289.2,304.8-289.1,310.5-289.1,313.7z"/>
	<path d="M-297.3,311.5c0-1.1-0.9-2-2-2H-342c-1.1,0-2,0.9-2,2V336c0,1.1,0.9,2,2,2h42.7c1.1,0,2-0.9,2-2V311.5z M-342.4,311.5
		c0-0.2,0.2-0.3,0.3-0.3h42.7c0.2,0,0.3,0.2,0.3,0.3v6c0,0.2-0.2,0.3-0.3,0.3h-42.7c-0.1,0-0.3-0.1-0.3-0.2L-342.4,311.5z
		 M-299.3,336.4H-342c-0.2,0-0.3-0.2-0.3-0.3v-16.6c0.1,0,0.2,0,0.3,0h42.7c0.1,0,0.3,0,0.4,0V336
		C-298.9,336.2-299.1,336.4-299.3,336.4z"/>
	<path d="M-305.7,299.3c-1.3,0-2-0.3-2-0.3s0.5-0.7,0.8-1.6c0.3-0.9,0.5-2.1,0.5-2.1s-0.7,0.9-1.9,1.8c-0.3,0.3-0.7,0.5-1,0.7
		c-1-0.6-2.7-1.9-4-4.3c0.6-0.9,1.6-1.4,3.1-1.4c-0.8-2.3-0.2-3.7,2.1-4.7c-1.6-1.9-1.6-3.4,0.1-5.4c-2.2-1.2-2.8-2.6-2-5
		c-2.5-0.2-3.5-1.2-3.6-3.7c-2.3,0.8-3.7,0.2-4.7-2.1c-1.9,1.6-3.4,1.6-5.4-0.1c-1.2,2.2-2.6,2.8-5,2c-0.2,2.5-1.2,3.5-3.7,3.6
		c0.8,2.4,0.2,3.7-2.1,4.7c1.6,1.9,1.6,3.4-0.1,5.4c2.2,1.2,2.8,2.6,2,5c2.5,0.2,3.5,1.2,3.6,3.7c1.4-0.5,2.5-0.4,3.3,0.2
		c-1,5.2-3.6,9.7-3.6,9.7l4.2-1.7l0.6,3.8c0,0,4-2.8,4.9-10.2c0.2,0.1,0.4,0.3,0.6,0.5c0.1-0.3,0.3-0.5,0.5-0.7c0.9,1.1,2,2.2,3.2,3
		c2,1.4,6.8,4,11.9-1C-303.5,299.1-304.4,299.3-305.7,299.3z M-319.7,293.9c-5.2,0.9-10.2-2.6-11.2-7.8s2.6-10.2,7.8-11.2
		c5.2-0.9,10.2,2.6,11.2,7.8C-311,288-314.5,293-319.7,293.9z"/>
	<g>
		<path d="M-337.1,323.6c0,0.1,0,0.3-0.1,0.4c-0.1,0.3-0.4,0.6-0.8,0.6c-0.4,0-0.7-0.2-0.8-0.6c-0.1-0.1-0.1-0.2-0.1-0.4l0.6-4.7
			h-0.7l-0.6,4.7c0,0.9,0.7,1.6,1.6,1.6s1.6-0.7,1.6-1.6l-0.6-4.7h-0.7L-337.1,323.6z"/>
		<path d="M-337,318.6c0-0.5-0.4-0.9-0.9-0.9s-0.9,0.4-0.9,0.9h0l0,0.3h0.7l0-0.2l-0.3,0h0h0.3c0-0.1,0.1-0.3,0.3-0.3h0l0,0
			c0.1,0,0.3,0.1,0.3,0.3h0.3h0l-0.3,0l0,0.2h0.7L-337,318.6L-337,318.6z"/>
		<path d="M-338.3,318.9l-0.6,4.7c0,0.1,0,0.3,0.1,0.4c0-0.1-0.1-0.2-0.1-0.3c0-0.4,0.4-0.8,0.8-0.8s0.8,0.4,0.8,0.8
			c0,0.1,0,0.2-0.1,0.3c0.1-0.1,0.1-0.2,0.1-0.4l-0.6-4.7H-338.3z"/>
	</g>
</g>
</svg>
