<svg xmlns="http://www.w3.org/2000/svg" xmlns:xlink="http://www.w3.org/1999/xlink" x="0px" y="0px"
	 viewBox="262.5 394.8 70.2 51.7" width="100%">
<path d="M331.6,399.4h-2.5v-2.6c0-0.5-0.3-0.9-0.8-1c-2.9-0.7-6.1-1-9.5-1c-7.5,0-14.5,1.7-19.7,4.7c-0.4,0.2-0.8,0.5-1.2,0.8
	c-0.4-0.3-0.9-0.5-1.4-0.8c-5.7-3.1-12.6-4.7-19.9-4.7c-3.5,0-7,0.4-9.8,1c-0.5,0.1-0.8,0.5-0.8,1v2.6h-2.4c-0.6,0-1.1,0.5-1.1,1.1
	v41.4c0,0.6,0.5,1.1,1.1,1.1h25.6v0.6c0,1.5,1.8,2.9,3.3,2.9h10.8c1.5,0,2.8-1.3,2.8-2.9v-0.7h25.5c0.6,0,1.1-0.5,1.1-1.1v-41.3
	C332.7,399.9,332.2,399.4,331.6,399.4z M330.6,440.8H305c-0.6,0-1.1,0.5-1.1,1.1v1.7c0,0.4-0.3,0.8-0.6,0.8h-10.8
	c-0.5,0-1.2-0.5-1.2-0.8v-1.7c0-0.6-0.5-1.1-1.1-1.1h-25.6v-39.2h1.4v33.7v2.7c0,0.3,0.1,0.6,0.4,0.8c0.2,0.2,0.6,0.3,0.9,0.2
	c2.7-0.6,6.1-1,9.4-1c7.8,0,14.9,1.9,20.7,5.5l0,0l0,0h0.1h0.1c0.1,0,0.2,0,0.3,0s0.2,0,0.3,0h0.1c0,0,0.1,0,0.1-0.1l0,0l0,0
	c4.8-3.4,12.4-5.4,20.3-5.4c3.2,0,6.2,0.3,9,1c0.3,0.1,0.6,0,0.9-0.2c0.3-0.2,0.4-0.5,0.4-0.8v-2.7v-33.7h1.6V440.8z M296.9,438.1
	c-5.8-3.2-12.8-4.9-20.2-4.9c-3,0-6,0.3-8.6,0.7v-32.3v-1.1v-0.1v-0.9v-0.1v-1.1v-0.6c2.5-0.5,5.6-0.8,8.6-0.8
	c5.3,0,10.3,0.9,14.8,2.6c0.9,0.3,1.7,0.7,2.5,1.1c0.7,0.3,1.4,0.7,2.1,1.1c0.3,0.2,0.6,0.3,0.9,0.5v35.9H296.9z M299,402
	c0.2-0.2,0.5-0.3,0.7-0.5c0.6-0.4,1.3-0.7,1.9-1.1c0.8-0.4,1.6-0.7,2.4-1.1c4.3-1.6,9.5-2.6,14.8-2.6c2.9,0,5.6,0.3,8.2,0.8v0.6v1.1
	v0.1v0.9v0.1v1.1v32.4c-2.6-0.5-5.3-0.7-8.2-0.7c-7.6,0-14.7,1.7-19.9,4.8V402H299z M268.1,436.1c2.5-0.5,5.6-0.8,8.6-0.8
	c7.5,0,14.5,1.8,20.2,5.2v0.3c-5.8-3.2-12.8-4.9-20.2-4.9c-3,0-6,0.3-8.6,0.7V436.1z M299,440.5c4.8-3.2,12.2-5.1,19.9-5.1
	c2.9,0,5.6,0.3,8.2,0.8v0.6c-2.6-0.5-5.3-0.7-8.2-0.7c-7.6,0-14.7,1.7-19.9,4.8V440.5z"/>
</svg>
