<svg xmlns="http://www.w3.org/2000/svg" xmlns:xlink="http://www.w3.org/1999/xlink" width="100%" version="1.1" x="0px" y="0px" viewBox="0 0 100 100" enable-background="new 0 0 100 100" xml:space="preserve"><g><path d="M82.4,94.5H58.7c-1.6,0-2.8-1.3-2.8-2.8V68.3H44.1v23.4c0,1.6-1.3,2.8-2.8,2.8H17.6c-1.6,0-2.8-1.3-2.8-2.8V53.9H8.3   c-1.1,0-2.2-0.7-2.6-1.7c-0.4-1.1-0.2-2.3,0.6-3.1L47.8,6.3c0.5-0.5,1.3-0.9,2-0.9c0.8,0,1.5,0.3,2,0.9l18.4,18.8   c0.4-1.1,1.4-1.9,2.7-1.9h9.5c1.6,0,2.8,1.3,2.8,2.8v14.3l8.5,8.6c0.8,0.8,1,2,0.6,3.1c-0.4,1.1-1.5,1.7-2.6,1.7h-6.4v37.8   C85.3,93.3,84,94.5,82.4,94.5z M59.7,90.7h21.7V50.1h7.9L81.5,42V27.1H74v7.2L49.9,9.7L10.6,50.1h7.9v40.6h21.7V64.5h19.5V90.7z"></path></g></svg>