<svg xmlns="http://www.w3.org/2000/svg" xmlns:xlink="http://www.w3.org/1999/xlink" x="0px" y="0px" width="100%"
	 viewBox="-370 248.3 100 100" xml:space="preserve">
<style type="text/css">
	.st0{fill:none;stroke:#000000;stroke-miterlimit:10;}
	.st1{fill:none;stroke:#000000;stroke-width:0.5;stroke-miterlimit:10;}
	.st2{fill:none;stroke:#000000;stroke-linejoin:round;stroke-miterlimit:10;}
</style>
<g>
	<path class="st0" d="M-350.9,281.7h-4.6c-0.5,0-0.9-0.4-1-0.8l-0.9-7.8c-0.1-0.7,0.4-1.1,1-1.1h6.5c0.7,0,1.1,0.6,1,1.1l-0.9,7.8
		C-349.9,281.3-350.4,281.7-350.9,281.7z"/>
	<g>
		<path class="st1" d="M-349.9,271.9l0.6-5.7c0-0.3-0.2-0.6-0.6-0.8c-0.3,0-0.6,0.2-0.8,0.6l-0.6,5.7h1.4V271.9z"/>
	</g>
	<path class="st1" d="M-351.4,271.9l-0.2-4.9c0-0.3-0.3-0.6-0.6-0.6s-0.6,0.3-0.6,0.6l0.2,4.9H-351.4z"/>
	<circle class="st1" cx="-357.9" cy="267.9" r="1.5"/>
	<circle class="st1" cx="-355" cy="267.2" r="1.5"/>
	<path class="st1" d="M-359,269c0.8,0.9,1.8,1.1,2.6,3h1.6c-0.1-2.3,0.8-2.7,1.2-4"/>
	<line class="st1" x1="-352.8" y1="268.2" x2="-351.6" y2="268.2"/>
	<line class="st1" x1="-350.6" y1="267.1" x2="-349.4" y2="267.2"/>
	<g>
		<path class="st0" d="M-300.1,253.2c-1.4-1-3.9,0-5.7,2.3c-3.2-0.7-6.8,0.6-9,3.6l13.2,9.9c2.2-3,2.5-6.8,0.9-9.7
			C-299,257-298.7,254.2-300.1,253.2z"/>
		<path class="st0" d="M-277.6,278.3l-5.4,0c0-0.1,0-0.3,0.1-0.4l-1.3-0.2c0,0.2-0.1,0.4-0.1,0.6l-6,0c-0.5,0-1,0.4-1,1l0,0.9
			c0,0.5,0.4,1,1,1l12.8,0c0.5,0,1-0.4,1-1l0-0.9C-276.6,278.7-277,278.3-277.6,278.3z"/>
		<path d="M-285.1,269.6l1.3-0.4c-0.1-0.3-0.2-0.5-0.2-0.8l-1.3,0.4C-285.2,269.1-285.2,269.3-285.1,269.6z"/>
		<path d="M-284.8,270.6l1.3-0.3c-0.1-0.3-0.1-0.5-0.2-0.8l-1.3,0.4C-284.9,270.2-284.9,270.4-284.8,270.6z"/>
		<path d="M-286.9,265.4l1.2-0.7c-0.1-0.2-0.3-0.5-0.4-0.7l-1.2,0.7C-287.1,265-287,265.2-286.9,265.4z"/>
		<path d="M-285.5,268.5l1.3-0.5c-0.1-0.2-0.2-0.5-0.3-0.7l-1.3,0.5C-285.6,268-285.5,268.3-285.5,268.5z"/>
		<path d="M-286.3,266.4l1.2-0.6c-0.1-0.2-0.2-0.5-0.4-0.7l-1.2,0.7C-286.6,266-286.5,266.2-286.3,266.4z"/>
		<path d="M-285.9,267.4l1.2-0.5c-0.1-0.2-0.2-0.5-0.3-0.7l-1.2,0.6C-286.1,267-286,267.2-285.9,267.4z"/>
		<path d="M-284.2,275.1l1.4,0c0-0.3,0-0.5,0-0.8l-1.4,0.1C-284.2,274.6-284.2,274.9-284.2,275.1z"/>
		<path d="M-284.2,277.3l1.4,0.1c0-0.3,0-0.5,0.1-0.8l-1.4-0.1C-284.2,276.9-284.2,277.1-284.2,277.3z"/>
		<path d="M-284.2,276.2l1.4,0c0-0.3,0-0.5,0-0.8l-1.4,0C-284.1,275.7-284.1,276-284.2,276.2z"/>
		<path d="M-284.3,273.7c0,0.1,0,0.2,0,0.3l1.4-0.1c0-0.1,0-0.2,0-0.4c0-0.1,0-0.3-0.1-0.4l-1.3,0.2
			C-284.3,273.4-284.3,273.5-284.3,273.7z"/>
		<path d="M-284.4,272.9l1.3-0.2c0-0.3-0.1-0.5-0.1-0.8l-1.3,0.2C-284.4,272.4-284.4,272.6-284.4,272.9z"/>
		<path d="M-284.5,271.7l1.3-0.3c-0.1-0.3-0.1-0.5-0.2-0.8l-1.3,0.3C-284.6,271.3-284.6,271.5-284.5,271.7z"/>
		<path d="M-296.6,256.4l-0.3,1.3c0.2,0.1,0.5,0.1,0.7,0.2l0.4-1.3C-296.1,256.5-296.3,256.5-296.6,256.4z"/>
		<path d="M-298,257.5c0.2,0,0.5,0.1,0.7,0.1l0.3-1.3c-0.3-0.1-0.5-0.1-0.8-0.2L-298,257.5z"/>
		<path d="M-295.4,256.7l-0.4,1.3c0.2,0.1,0.5,0.2,0.7,0.2l0.5-1.3C-294.9,256.9-295.2,256.8-295.4,256.7z"/>
		<path d="M-293.2,257.6l-0.6,1.2c0.2,0.1,0.4,0.2,0.7,0.3l0.7-1.2C-292.7,257.9-292.9,257.7-293.2,257.6z"/>
		<path d="M-294.3,257.1l-0.5,1.3c0.2,0.1,0.5,0.2,0.7,0.3l0.6-1.2C-293.8,257.3-294,257.2-294.3,257.1z"/>
		<path d="M-292.1,258.2l-0.7,1.2c0.2,0.1,0.4,0.3,0.6,0.4l0.7-1.1C-291.6,258.5-291.9,258.3-292.1,258.2z"/>
		<path d="M-290.4,259.3c-0.2-0.2-0.4-0.3-0.7-0.5l-0.8,1.1c0.2,0.1,0.4,0.3,0.6,0.4L-290.4,259.3z"/>
		<path d="M-288.1,263.6l1.1-0.8c-0.2-0.2-0.3-0.4-0.5-0.6l-1,0.9C-288.4,263.2-288.3,263.4-288.1,263.6z"/>
		<path d="M-288.8,262.7l1-0.9c-0.2-0.2-0.4-0.4-0.5-0.6l-1,0.9C-289.1,262.3-289,262.5-288.8,262.7z"/>
		<path d="M-299.1,257.3c0.3,0,0.5,0.1,0.7,0.1l0.2-1.3c-0.3,0-0.5-0.1-0.8-0.1L-299.1,257.3z"/>
		<path d="M-287.5,264.5l1.1-0.7c-0.1-0.2-0.3-0.4-0.5-0.7l-1.1,0.8C-287.7,264.1-287.6,264.3-287.5,264.5z"/>
		<path d="M-289.6,261.9l1-1c-0.2-0.2-0.4-0.4-0.6-0.6l-0.9,1C-289.9,261.5-289.7,261.7-289.6,261.9z"/>
		<path d="M-290.4,261.1l0.9-1c-0.2-0.2-0.4-0.4-0.6-0.5l-0.8,1.1C-290.8,260.8-290.6,260.9-290.4,261.1z"/>
	</g>
	<path class="st0" d="M-272.4,282.9c0,0.6-0.5,1.1-1.1,1.1h-92.8c-0.6,0-1.1-0.5-1.1-1.1l0,0c0-0.6,0.5-1.1,1.1-1.1h92.8
		C-272.9,281.8-272.4,282.3-272.4,282.9L-272.4,282.9z"/>
	<path class="st0" d="M-363.1,342.1c0,0.6,0.5,1.1,1.1,1.1c0.6,0,1.1-0.5,1.1-1.1V284h-2.2V342.1z"/>
	<path class="st0" d="M-279.1,342.1c0,0.6,0.5,1.1,1.1,1.1s1.1-0.5,1.1-1.1V284h-2.2V342.1z"/>
	<rect x="-308.1" y="284" class="st2" width="28.9" height="13.9"/>
	<rect x="-308.1" y="297.9" class="st2" width="28.9" height="13.9"/>
	<rect x="-308.1" y="311.7" class="st2" width="28.9" height="13.9"/>
	<path class="st0" d="M-293.6,303.5c0.8,0,1.4,0.6,1.4,1.4s-0.6,1.4-1.4,1.4s-1.4-0.6-1.4-1.4S-294.4,303.5-293.6,303.5z"/>
	<path class="st0" d="M-293.6,317.3c0.8,0,1.4,0.6,1.4,1.4s-0.6,1.4-1.4,1.4s-1.4-0.6-1.4-1.4S-294.4,317.3-293.6,317.3z"/>
	<circle class="st0" cx="-293.6" cy="291" r="1.4"/>
</g>
</svg>
