<?xml version="1.0" encoding="utf-8"?>
<!-- Generator: Adobe Illustrator 19.1.0, SVG Export Plug-In . SVG Version: 6.00 Build 0)  -->
<!DOCTYPE svg PUBLIC "-//W3C//DTD SVG 1.1//EN" "http://www.w3.org/Graphics/SVG/1.1/DTD/svg11.dtd">
<svg version="1.1" id="Lag_1" xmlns="http://www.w3.org/2000/svg" xmlns:xlink="http://www.w3.org/1999/xlink" x="0px" y="0px"
	 viewBox="-370 248.3 100 100" style="enable-background:new -370 248.3 100 100;" xml:space="preserve">
<style type="text/css">
	.st0{stroke:#000000;stroke-miterlimit:10;}
</style>
<g>
	<path class="st0" d="M-295.7,279h6.7c2.7,0,4.9-2.1,4.9-4.8v-6.7c0-2.6-2.2-4.8-4.9-4.8h-6.7c-2.6,0-4.8,2.2-4.8,4.8v6.7
		C-300.5,276.8-298.3,279-295.7,279z M-297.6,267.5c0-1,0.9-1.9,1.9-1.9h6.7c1.1,0,2,0.8,2,1.9v6.7c0,1-0.9,1.9-2,1.9h-6.7
		c-1,0-1.9-0.9-1.9-1.9V267.5z"/>
	<path class="st0" d="M-292.8,253.3h-54.4c-9.9,0-17.8,7.9-17.8,17.7v54.4c0,9.8,8,17.8,17.8,17.8h54.4c9.8,0,17.8-8,17.8-17.8V271
		C-275,261.2-283,253.3-292.8,253.3z M-347.2,256.2h54.4c8.2,0,14.9,6.7,14.9,14.8v12.8h-25.7l0,0c-4.5-4.3-10.6-6.8-17.2-6.8
		c-6.6,0-12.7,2.6-17.2,6.8h-24.1V271C-362.1,262.8-355.5,256.2-347.2,256.2z M-336.6,286.4c0.1-0.1,0.2-0.2,0.3-0.3
		c4-3.9,9.5-6.3,15.5-6.3c12.3,0,22.2,10.1,22.2,22.4s-10,22.2-22.2,22.2c-12.3,0-22.4-10-22.4-22.2
		C-343.2,296.1-340.6,290.5-336.6,286.4z M-292.8,340.3h-54.4c-8.2,0-14.9-6.7-14.9-14.9v-38.7h21.5c-3.4,4.3-5.4,9.7-5.4,15.6
		c0,13.9,11.3,25.2,25.3,25.2c13.9,0,25.1-11.3,25.1-25.2c0-5.9-2-11.3-5.4-15.6h23.1v38.8C-278,333.7-284.6,340.3-292.8,340.3z"/>
	<path class="st0" d="M-320.9,316.6c8,0,14.4-6.5,14.4-14.5s-6.5-14.5-14.4-14.5c-8,0-14.4,6.5-14.4,14.5
		C-335.4,310.1-328.9,316.6-320.9,316.6z M-320.9,290.6c6.4,0,11.5,5.2,11.5,11.5c0,6.4-5.2,11.5-11.5,11.5
		c-6.4,0-11.5-5.2-11.5-11.5C-332.5,295.8-327.3,290.6-320.9,290.6z"/>
</g>
</svg>
