<?xml version="1.0" encoding="utf-8"?>
<!-- Generator: Adobe Illustrator 19.1.0, SVG Export Plug-In . SVG Version: 6.00 Build 0)  -->
<svg version="1.1"
	 id="svg2" xmlns:inkscape="http://www.inkscape.org/namespaces/inkscape" xmlns:rdf="http://www.w3.org/1999/02/22-rdf-syntax-ns#" xmlns:sodipodi="http://sodipodi.sourceforge.net/DTD/sodipodi-0.dtd" xmlns:svg="http://www.w3.org/2000/svg" xmlns:dc="http://purl.org/dc/elements/1.1/" xmlns:cc="http://creativecommons.org/ns#"
	 xmlns="http://www.w3.org/2000/svg" xmlns:xlink="http://www.w3.org/1999/xlink" width="100%" x="0px" y="0px" viewBox="-170 48.3 500 500"
	 style="enable-background:new -170 48.3 500 500;" xml:space="preserve">
<g id="layer1" transform="translate(0,-552.36218)">
	<path id="rect2995" d="M-30.1,706.4c-19.2,0-34.7,15.5-34.7,34.7c0,19.2,15.5,34.8,34.7,34.8s34.7-15.6,34.7-34.8
		C4.6,722-10.9,706.4-30.1,706.4z M151.8,796.9c-3.9,0-7.7,0.1-12.7,0.4c-10.9,0.6-36.4,12.4-45.8,31.2c0-8.2,0.1-15.7,0.1-26.9
		c-11.2,0-25.8,0.1-56.4,0.1c0,34.3-0.4,155.6-0.4,190.9h59.2c0-21,0.3-73.6,0.3-106.7c0-11.1,6.7-36.8,34.3-36.8
		c25.1,0,32.1,21.1,32.1,36.8c0,34.4-0.2,83.1-0.2,106.7h59.5c0-23,0.2-85.6-0.5-125.1c-0.9-48-30-68.4-56.2-70
		C159.7,797.1,155.7,796.9,151.8,796.9z M-59.8,802.4v190.1h59.3V802.4H-59.8z"/>
</g>
</svg>
