<svg xmlns="http://www.w3.org/2000/svg" xmlns:xlink="http://www.w3.org/1999/xlink" x="0px" y="0px" width="100%"
	 viewBox="-370 248.3 100 100">
<style type="text/css">
	.st0{fill:none;stroke:#000000;stroke-miterlimit:10;}
</style>
<g>
	<g>
		<circle cx="-360.3" cy="315.2" r="2"/>
		<path d="M-357,325.8c0,0.5-0.9,1.2-1.8,1.2h-2.9c-0.9,0-1.4-0.7-1.4-1.2v-6.4c0-0.5,0.5-1.4,1.4-1.4h2.9c0.9,0,1.8,0.8,1.8,1.4
			V325.8z"/>
	</g>
	<g>
		<circle cx="-302.7" cy="307.6" r="2"/>
		<path d="M-299.4,318.1c0,0.5-0.9,1.2-1.8,1.2h-2.9c-0.9,0-1.4-0.7-1.4-1.2v-6.4c0-0.5,0.5-1.4,1.4-1.4h2.9c0.9,0,1.8,0.8,1.8,1.4
			V318.1z"/>
	</g>
	<g>
		<circle cx="-338.3" cy="280.2" r="2"/>
		<path d="M-335,290.7c0,0.5-0.9,1.2-1.8,1.2h-2.9c-0.9,0-1.4-0.7-1.4-1.2v-6.4c0-0.5,0.5-1.4,1.4-1.4h2.9c0.9,0,1.8,0.8,1.8,1.4
			V290.7z"/>
	</g>
	<g>
		<circle cx="-361.6" cy="256.4" r="2"/>
		<path d="M-358.3,266.9c0,0.5-0.9,1.2-1.8,1.2h-2.9c-0.9,0-1.4-0.7-1.4-1.2v-6.4c0-0.5,0.5-1.4,1.4-1.4h2.9c0.9,0,1.8,0.8,1.8,1.4
			V266.9z"/>
	</g>
	<g>
		<circle cx="-318.6" cy="268.2" r="2"/>
		<path d="M-315.3,278.7c0,0.5-0.9,1.2-1.8,1.2h-2.9c-0.9,0-1.4-0.7-1.4-1.2v-6.4c0-0.5,0.5-1.4,1.4-1.4h2.9c0.9,0,1.8,0.8,1.8,1.4
			V278.7z"/>
	</g>
	<g>
		<circle cx="-286.8" cy="256.5" r="2"/>
		<path d="M-283.5,267c0,0.5-0.9,1.2-1.8,1.2h-2.9c-0.9,0-1.4-0.7-1.4-1.2v-6.4c0-0.5,0.5-1.4,1.4-1.4h2.9c0.9,0,1.8,0.8,1.8,1.4
			V267z"/>
	</g>
	<g>
		<circle cx="-279" cy="295.3" r="2"/>
		<path d="M-275.7,305.8c0,0.5-0.9,1.2-1.8,1.2h-2.9c-0.9,0-1.4-0.7-1.4-1.2v-6.4c0-0.5,0.5-1.4,1.4-1.4h2.9c0.9,0,1.8,0.8,1.8,1.4
			V305.8z"/>
	</g>
	<g>
		<circle cx="-283.5" cy="330.4" r="2"/>
		<path d="M-280.2,340.9c0,0.5-0.9,1.2-1.8,1.2h-2.9c-0.9,0-1.4-0.7-1.4-1.2v-6.4c0-0.5,0.5-1.4,1.4-1.4h2.9c0.9,0,1.8,0.8,1.8,1.4
			L-280.2,340.9L-280.2,340.9z"/>
	</g>
	<g>
		<circle cx="-343" cy="330.2" r="2"/>
		<path d="M-339.7,340.8c0,0.5-0.9,1.2-1.8,1.2h-2.9c-0.9,0-1.4-0.7-1.4-1.2v-6.4c0-0.5,0.5-1.4,1.4-1.4h2.9c0.9,0,1.8,0.8,1.8,1.4
			V340.8z"/>
	</g>
	<line class="st0" x1="-361.6" y1="273.2" x2="-359.6" y2="309.5"/>
	<line class="st0" x1="-354.7" y1="317.2" x2="-342.7" y2="295.3"/>
	<line class="st0" x1="-354.7" y1="262.5" x2="-343" y2="282.1"/>
	<line class="st0" x1="-338" y1="297.3" x2="-339.7" y2="327"/>
	<line class="st0" x1="-333.5" y1="284.5" x2="-323.7" y2="276.5"/>
	<line class="st0" x1="-332.2" y1="291.9" x2="-309" y2="312.1"/>
	<line class="st0" x1="-299.4" y1="322.5" x2="-288.7" y2="334.2"/>
	<line class="st0" x1="-296.7" y1="312.1" x2="-284.8" y2="302.5"/>
	<line class="st0" x1="-302.4" y1="302" x2="-289.5" y2="270.1"/>
	<line class="st0" x1="-313.7" y1="272.3" x2="-292.2" y2="263.7"/>
	<line class="st0" x1="-338" y1="334.2" x2="-307.7" y2="319.3"/>
	<line class="st0" x1="-283.5" y1="326.8" x2="-279" y2="310.3"/>
	<line class="st0" x1="-336.3" y1="340.5" x2="-292.2" y2="342"/>
</g>
</svg>
