<svg xmlns:xlink="http://www.w3.org/1999/xlink" xmlns="http://www.w3.org/2000/svg" version="1.1" x="0px" y="0px" width="100%"
		 viewBox="0 0 100 100">
	<g>
		<path fill="#000000" d="M29.826,90.969c-9.033,0-16.382-7.349-16.382-16.381c0-9.033,7.349-16.382,16.382-16.382
    c9.033,0,16.382,7.349,16.382,16.382C46.208,83.62,38.859,90.969,29.826,90.969z M29.826,59.634   c-8.246,0-14.954,6.708-14.954,14.954c0,8.245,6.708,14.953,14.954,14.953S44.78,82.833,44.78,74.588   C44.78,66.342,38.071,59.634,29.826,59.634z"></path>
		<path fill="#000000" d="M64.813,66.562c-7.977,0-14.466-6.489-14.466-14.465s6.489-14.465,14.466-14.465   s14.466,6.489,14.466,14.465S72.79,66.562,64.813,66.562z M64.813,39.059c-7.189,0-13.038,5.849-13.038,13.037   s5.849,13.037,13.038,13.037s13.038-5.849,13.038-13.037S72.002,39.059,64.813,39.059z"></path>
		<path fill="#000000" d="M43.035,38.222c-6.129,0-11.116-4.987-11.116-11.116c0-6.129,4.987-11.116,11.116-11.116   c6.129,0,11.116,4.987,11.116,11.116C54.151,33.235,49.165,38.222,43.035,38.222z M43.035,17.418c-5.342,0-9.688,4.346-9.688,9.688   c0,5.342,4.346,9.688,9.688,9.688c5.341,0,9.688-4.346,9.688-9.688C52.723,21.764,48.376,17.418,43.035,17.418z"></path>
		<g>
			<g>
				<g>
					<circle fill="#000000" cx="43.035" cy="22.604" r="3.2"></circle>
					<path fill="#000000" d="M43.035,26.341c-2.06,0-3.735-1.677-3.735-3.737c0-2.06,1.676-3.735,3.735-3.735      c2.06,0,3.736,1.676,3.736,3.735C46.771,24.664,45.095,26.341,43.035,26.341z M43.035,19.939c-1.469,0-2.665,1.195-2.665,2.665      c0,1.47,1.195,2.666,2.665,2.666c1.47,0,2.665-1.196,2.665-2.666C45.7,21.135,44.505,19.939,43.035,19.939z"></path>
				</g>
				<g>
					<path fill="#000000" d="M47.479,32.2c0,2.002-8.886,2.002-8.886,0c0-2.861,1.989-5.094,4.442-5.094      C45.488,27.106,47.479,29.339,47.479,32.2z"></path>
					<path fill="#000000" d="M43.036,34.237c-2.407,0-4.979-0.535-4.979-2.037c0-3.157,2.186-5.63,4.978-5.63      c2.792,0,4.979,2.473,4.979,5.63C48.014,33.702,45.442,34.237,43.036,34.237z M43.035,27.641c-2.19,0-3.907,2.003-3.907,4.559      c0,0.337,1.342,0.966,3.908,0.966c2.565,0,3.907-0.628,3.907-0.966C46.943,29.644,45.227,27.641,43.035,27.641z"></path>
				</g>
			</g>
		</g>
		<g>
			<g>
				<g>
					<circle fill="#000000" cx="64.869" cy="46.703" r="4.717"></circle>
					<path fill="#000000" d="M64.869,51.956c-2.897,0-5.253-2.356-5.253-5.253c0-2.897,2.356-5.255,5.253-5.255      c2.896,0,5.253,2.357,5.253,5.255C70.122,49.599,67.765,51.956,64.869,51.956z M64.869,42.519c-2.306,0-4.182,1.876-4.182,4.184      c0,2.306,1.876,4.182,4.182,4.182s4.182-1.876,4.182-4.182C69.051,44.396,67.174,42.519,64.869,42.519z"></path>
				</g>
				<g>
					<path fill="#000000" d="M71.421,60.464c0,2.954-13.103,2.954-13.103,0c0-4.218,2.933-7.513,6.55-7.513      C68.487,52.951,71.421,56.246,71.421,60.464z"></path>
					<path fill="#000000" d="M64.87,63.215c-3.27,0-7.087-0.72-7.087-2.751c0-4.513,3.112-8.048,7.085-8.048      c3.975,0,7.088,3.535,7.088,8.048C71.957,62.495,68.139,63.215,64.87,63.215z M64.869,53.487c-3.373,0-6.015,3.064-6.015,6.977      c0,0.811,2.417,1.68,6.016,1.68c3.599,0,6.016-0.869,6.016-1.68C70.886,56.551,68.243,53.487,64.869,53.487z"></path></g></g></g><g><g><g><circle fill="#000000" cx="29.986" cy="67.688" r="5.727"></circle><path fill="#000000" d="M29.987,73.951c-3.454,0-6.263-2.809-6.263-6.263c0-3.454,2.81-6.264,6.263-6.264      c3.453,0,6.262,2.81,6.262,6.264C36.249,71.142,33.439,73.951,29.987,73.951z M29.987,62.495c-2.863,0-5.192,2.33-5.192,5.193      c0,2.863,2.33,5.192,5.192,5.192c2.862,0,5.191-2.329,5.191-5.192C35.178,64.824,32.849,62.495,29.987,62.495z"></path></g><g><path fill="#000000" d="M37.939,84.118c0,3.584-15.907,3.584-15.907,0c0-5.121,3.562-9.121,7.954-9.121      C34.378,74.997,37.939,78.997,37.939,84.118z"></path><path fill="#000000" d="M29.986,87.341c-3.916,0-8.489-0.844-8.489-3.223c0-5.415,3.729-9.657,8.489-9.657      c4.76,0,8.488,4.242,8.488,9.657C38.475,86.498,33.902,87.341,29.986,87.341z M29.987,75.532c-4.16,0-7.418,3.771-7.418,8.586      c0,1.187,3.328,2.152,7.418,2.152c4.09,0,7.417-0.965,7.417-2.152C37.404,79.304,34.146,75.532,29.987,75.532z"></path></g></g></g><path fill="#000000" d="M55.651,42.248c-0.146,0-0.292-0.06-0.398-0.178l-5.921-6.583c-0.197-0.22-0.18-0.558,0.041-0.756   c0.219-0.197,0.557-0.18,0.756,0.041l5.921,6.583c0.197,0.22,0.18,0.558-0.041,0.756C55.907,42.202,55.779,42.248,55.651,42.248z"></path><path fill="#000000" d="M43.75,68.015c-0.192,0-0.379-0.104-0.475-0.286c-0.137-0.262-0.037-0.586,0.225-0.723l11.247-5.904   c0.264-0.138,0.587-0.036,0.724,0.225c0.137,0.262,0.037,0.586-0.225,0.723l-11.247,5.904   C43.919,67.996,43.834,68.015,43.75,68.015z">

	</path>
	</g>
</svg>