<svg xmlns="http://www.w3.org/2000/svg" xmlns:xlink="http://www.w3.org/1999/xlink" viewBox="-370 248.3 100 100">
<style type="text/css">
	.st0{fill:none;}
	.st1{fill:#FFFFFF;stroke:#000000;stroke-miterlimit:10;}
</style>
<g>
	<path class="st0" d="M-361.9,268.5l-2.2,0.2c-0.3,0-0.6,0.3-0.5,0.7l0.8,7.4c0,0.3,0.3,0.6,0.7,0.5l2.2-0.2c0.3,0,0.6-0.3,0.5-0.7
		l-0.8-7.4C-361.3,268.7-361.6,268.5-361.9,268.5z"/>
	<path class="st0" d="M-345.9,279l-3.6,0.4c-0.3,0-0.5,0.3-0.5,0.6l2.8,24.8h4.8l-2.8-25.3C-345.3,279.2-345.6,278.9-345.9,279z"/>
	<path class="st0" d="M-344.1,276.8l0.6-5.1l0.5-0.1c4.9-0.5,9.6,5.7,10.9,7.4l0.9-0.4c-1.2-2.2-6.4-11-13.1-11.8
		c-6.1-0.7-9,0.9-9.5,1.3c-0.2,0.4-1,1.4-2.8,1.6c-1,0.1-1.5-0.1-2-0.4c-0.4-0.2-0.7-0.3-1.3-0.3l0.8,7.1c0.6-0.1,0.9-0.4,1.2-0.6
		c0.4-0.3,0.9-0.7,1.9-0.8c2.2-0.2,3.1,1,3.2,1l0.1,0.1l0.9,1.9c0.4,0.7,0.7,0.7,0.9,0.7l6.3-0.7
		C-344.5,277.6-344.2,277.3-344.1,276.8z"/>
	<path class="st0" d="M-359.4,298c-0.1,1.3-0.4,3.4-0.9,6.8h4.7l0.8-6.2L-359.4,298z"/>
	<path class="st0" d="M-305.6,290.4c0.6,0.4,1.2,0.5,1.8,0.4c1.3-0.2,2.2-1.5,2-2.9c-0.2-1.2-1.5-2.2-2.9-2
		c-0.7,0.1-1.2,0.5-1.6,1.1c0,0,0,0.1,0,0.2l-0.4,1.2c0,0.2,0,0.2,0,0.4C-306.5,289.5-306.1,290.1-305.6,290.4z"/>
	<path class="st0" d="M-354.5,297.2l0-0.2l-1.6-5.9l-3.2,5.3c0,0,0,0.1,0,0.1L-354.5,297.2z"/>
	<path class="st0" d="M-328.7,303.3c-0.1-0.4-0.2-0.5-0.4-0.7c-0.2-0.2-0.4-0.5-0.5-1c0-0.2,0-0.4,0-0.6l-1.6,0.2l0.5,3.6h1.7
		c0-0.3,0.1-0.5,0.2-0.7C-328.8,303.9-328.7,303.7-328.7,303.3z"/>
	<path class="st0" d="M-330.8,291.5c-0.2-0.3-0.4-0.5-0.5-1.1c-0.1-0.6,0-0.9,0.2-1.2c0.1-0.3,0.2-0.4,0.1-0.8c0-0.1,0-0.1,0-0.1
		c-0.1-0.6-0.7-1-1.2-0.9s-1,0.6-0.9,1.2l0.8,5.6l1.6-0.2c-0.1-0.5,0.1-0.9,0.2-1.1s0.2-0.4,0.1-0.8
		C-330.5,291.8-330.6,291.7-330.8,291.5z"/>
	<path class="st0" d="M-332.7,284.1c-2.2,0.3-3.6,1.7-3.3,4l2.5,16.7h2.1l-0.5-3.6c-0.4-0.1-0.6-0.4-0.7-0.8l-0.7-5
		c-0.1-0.4,0.1-0.8,0.4-1l-0.9-5.8c-0.1-0.9,0.5-1.8,1.4-1.9s1.8,0.5,1.9,1.4c0,0.1,0,0.1,0,0.1c0.1,0.5-0.1,0.9-0.2,1.1
		c-0.1,0.2-0.2,0.4-0.1,0.8s0.2,0.5,0.4,0.7c0.2,0.3,0.4,0.5,0.5,1.1c0.1,0.6,0,0.9-0.2,1.2c-0.1,0.2-0.1,0.4-0.1,0.8l0.1,0
		c0.5-0.1,1,0.3,1.1,0.8l0.7,5c0.1,0.5-0.3,1-0.8,1.1c-0.1,0.2-0.1,0.3,0,0.6c0.1,0.4,0.2,0.5,0.4,0.7c0.2,0.3,0.4,0.5,0.5,1.1
		c0.1,0.6,0,0.9-0.2,1.2c-0.1,0.2-0.1,0.3-0.2,0.5h2.7l-2.6-17.8C-328.8,284.7-330.5,283.8-332.7,284.1z"/>
	<path class="st0" d="M-283.2,282.3c-0.1,0-0.2,0-0.2,0.1c0,0.1,0,0.2,0.1,0.2c0.1,0,0.1,0,0.1,0c0,0,0.1,0,0.1-0.1
		C-283.1,282.5-283.1,282.5-283.2,282.3C-283.1,282.4-283.2,282.4-283.2,282.3z"/>
	<polygon class="st0" points="-312.7,304.8 -304.9,304.8 -310.4,298.3 	"/>
	<path class="st0" d="M-274,269.8l-0.5,0.2c-1.4,0.6-3.6,0.5-5-0.3l-4.3-2.4c-1.3-0.7-2.7-2.4-3.2-3.9l-0.4-1.3
		c-0.1-0.3-0.2-0.5-0.3-0.6c-0.1,0.1-0.2,0.2-0.3,0.6l-3.3,8.3c-0.5,1.2-0.8,3.3-0.7,4.6l0.3,4.3c0,0.3,0.1,0.6,0.3,1c0,0,0,0,0,0
		c0.4,0.9,1.1,1.7,1.9,2l2.4,1c1.1,0.4,2,1.3,2.4,2.2c0.2,0.4,0.2,0.7,0.2,1c0,0.2,0,0.4,0.1,0.6c0.3,0.7,1,1.3,1.8,1.6
		c1,0.4,2.1-0.1,2.5-1.1l6.7-17.2c0.2-0.5,0.1-0.7,0.1-0.7C-273.2,269.6-273.5,269.6-274,269.8z M-287.2,279.7c-0.3,0.6-1,1-1.6,0.7
		c-0.3-0.1-0.6-0.4-0.7-0.7c-0.1-0.3-0.1-0.7,0-1c0.3-0.6,1-1,1.6-0.7C-287.3,278.3-287,279.1-287.2,279.7z M-282.1,283
		c-0.1,0.3-0.4,0.6-0.7,0.7c-0.3,0.1-0.7,0.1-1,0c-0.3-0.1-0.6-0.4-0.7-0.7c-0.1-0.3-0.1-0.7,0-1c0.3-0.6,1-1,1.6-0.7
		C-282.2,281.6-281.9,282.3-282.1,283z M-276.7,276.1c-0.8,1.4-2.6,2-4,1.2l-7.2-4c-0.6-0.3-1-0.8-1.3-1.4c-0.4-0.9-0.3-1.8,0.1-2.6
		c0.8-1.4,2.6-2,4-1.2l7.2,4c0.6,0.3,1,0.8,1.3,1.4C-276.2,274.3-276.2,275.3-276.7,276.1z"/>
	<path class="st0" d="M-278.4,273l-7.2-4c-0.9-0.5-2.1-0.2-2.6,0.7c-0.5,0.9-0.1,2.1,0.7,2.6l7.2,4c0.9,0.5,2.1,0.2,2.6-0.7
		c0.3-0.5,0.3-1.1,0.1-1.7C-277.7,273.5-278,273.2-278.4,273z"/>
	<path class="st0" d="M-320.1,288.7c-1.3,0.2-2.2,1.5-2,2.9c0.1,0.7,0.5,1.2,1.1,1.6c0.6,0.4,1.2,0.5,1.8,0.4c1.3-0.2,2.2-1.5,2-2.9
		C-317.5,289.4-318.8,288.5-320.1,288.7z"/>
	<path class="st0" d="M-288.3,279.1c-0.1,0-0.2,0-0.2,0.1c0,0.1,0,0.2,0.1,0.2c0.1,0,0.2,0,0.2-0.1c0-0.1,0-0.1,0-0.1
		C-288.3,279.2-288.3,279.1-288.3,279.1z"/>
	<path d="M-350,280c0-0.3,0.2-0.6,0.5-0.6l3.6-0.4c0.3,0,0.6,0.2,0.6,0.5l2.8,25.3h1.2l-2.8-25.5c0-0.2-0.1-0.5-0.2-0.7
		c0.7-0.2,1.2-0.8,1.4-1.6l0.5-4.3c4.7,0,9.6,7.3,9.6,7.4l0.3,0.4l2.8-1.4l-0.3-0.5c-0.2-0.5-6-12-14.3-13
		c-7.3-0.9-10.3,1.5-10.5,1.6l-0.1,0.1l-0.1,0.1c0,0-0.5,0.9-1.9,1.1c-0.7,0.1-1-0.1-1.4-0.3c-0.5-0.2-1.2-0.5-2.3-0.4
		c-0.4-0.3-0.9-0.5-1.4-0.5l-2.2,0.2c-1,0.1-1.7,1-1.5,1.9l0.8,7.4c0.1,1,1,1.7,1.9,1.5l2.2-0.2c0.6-0.1,1.1-0.4,1.3-0.9
		c1.1-0.2,1.6-0.6,2.1-0.9c0.4-0.3,0.7-0.5,1.3-0.6c1.3-0.1,2,0.4,2.1,0.6l0.9,1.8c0.5,0.9,1.1,1.4,1.9,1.3c-0.1,0.2-0.1,0.4,0,0.6
		l2.8,24.7h1.2L-350,280z M-361,277.1l-2.2,0.2c-0.3,0-0.6-0.2-0.7-0.5l-0.8-7.4c0-0.3,0.2-0.6,0.5-0.7l2.2-0.2
		c0.3,0,0.6,0.2,0.7,0.5l0.8,7.4C-360.4,276.8-360.7,277.1-361,277.1z M-351.2,278.4c-0.2,0-0.5,0.1-0.9-0.7l-0.9-1.9l-0.1-0.1
		c0-0.1-1-1.3-3.2-1c-1,0.1-1.5,0.5-1.9,0.8c-0.3,0.3-0.7,0.5-1.2,0.6l-0.8-7.1c0.6,0,0.9,0.2,1.3,0.3c0.5,0.2,1.1,0.5,2,0.4
		c1.8-0.2,2.5-1.2,2.8-1.6c0.5-0.3,3.4-2,9.5-1.3c6.7,0.8,11.9,9.6,13.1,11.8l-0.9,0.4c-1.2-1.7-6-8-10.9-7.4l-0.5,0.1l-0.6,5.1
		c-0.1,0.5-0.4,0.8-0.8,0.8L-351.2,278.4z"/>
	<path d="M-282.8,281.3c-0.7-0.3-1.4,0.1-1.6,0.7c-0.1,0.3-0.1,0.7,0,1c0.1,0.3,0.4,0.5,0.7,0.7c0.3,0.1,0.7,0.1,1,0
		c0.3-0.1,0.5-0.4,0.7-0.7C-281.9,282.3-282.2,281.6-282.8,281.3z M-283.2,282.7c0,0-0.1,0-0.1,0c-0.1,0-0.1-0.1-0.1-0.2
		c0-0.1,0.1-0.1,0.2-0.1c0.1,0,0.1,0.1,0.1,0.1C-283.1,282.5-283.1,282.5-283.2,282.7C-283.1,282.6-283.2,282.7-283.2,282.7z"/>
	<path d="M-272.2,269.2c-0.3-0.6-1-1-2.2-0.5l-0.5,0.2c-1.1,0.5-3,0.4-4-0.2l-4.3-2.4c-1.1-0.6-2.3-2.1-2.7-3.3l-0.4-1.3
		c-0.4-1.2-1-1.4-1.4-1.4c-0.4,0-0.9,0.2-1.3,1.3l-3.3,8.3c-0.5,1.4-0.9,3.6-0.8,5.1l0.3,4.3c0,0.4,0.1,0.9,0.3,1.3c0,0,0,0,0,0
		c0.5,1.2,1.5,2.2,2.5,2.6l2.4,1c0.8,0.3,1.5,1,1.8,1.7c0.1,0.2,0.1,0.4,0.1,0.6c0,1.2,1.2,2.7,2.6,3.3c1.5,0.6,3.3-0.2,3.9-1.7
		l6.7-17.2C-272,270.2-272,269.6-272.2,269.2z M-273.3,270.4l-6.7,17.2c-0.4,1-1.5,1.5-2.5,1.1c-0.8-0.3-1.5-1-1.8-1.6
		c-0.1-0.2-0.1-0.4-0.1-0.6c0-0.3-0.1-0.7-0.2-1c-0.4-0.9-1.4-1.8-2.4-2.2l-2.4-1c-0.8-0.3-1.5-1.1-1.9-2c0,0,0,0,0,0
		c-0.1-0.3-0.2-0.7-0.3-1l-0.3-4.3c-0.1-1.3,0.2-3.4,0.7-4.6l3.3-8.3c0.1-0.4,0.3-0.5,0.3-0.6c0.1,0.1,0.2,0.3,0.3,0.6l0.4,1.3
		c0.5,1.5,1.9,3.2,3.2,3.9l4.3,2.4c1.4,0.8,3.6,0.9,5,0.3l0.5-0.2c0.5-0.2,0.8-0.2,0.8-0.1C-273.2,269.7-273.1,269.9-273.3,270.4z"
		/>
	<path d="M-277.9,272.1l-7.2-4c-1.4-0.8-3.3-0.3-4,1.2c-0.4,0.8-0.5,1.8-0.1,2.6c0.3,0.6,0.7,1.1,1.3,1.4l7.2,4
		c1.4,0.8,3.3,0.3,4-1.2c0.4-0.8,0.5-1.8,0.1-2.6C-276.8,272.9-277.3,272.4-277.9,272.1z M-277.6,275.6c-0.5,0.9-1.7,1.2-2.6,0.7
		l-7.2-4c-0.9-0.5-1.2-1.7-0.7-2.6c0.5-0.9,1.7-1.2,2.6-0.7l7.2,4c0.4,0.2,0.7,0.5,0.8,0.9C-277.3,274.5-277.4,275.1-277.6,275.6z"
		/>
	<path d="M-287.9,278.1c-0.7-0.3-1.4,0.1-1.6,0.7c-0.1,0.3-0.1,0.7,0,1c0.1,0.3,0.4,0.5,0.7,0.7c0.6,0.3,1.4-0.1,1.6-0.7
		C-287,279.1-287.3,278.3-287.9,278.1z M-288.5,279.4c-0.1,0-0.1-0.1-0.1-0.2c0-0.1,0.1-0.1,0.2-0.1c0.1,0,0.1,0.1,0.1,0.1
		c0,0,0,0.1,0,0.1C-288.3,279.4-288.4,279.5-288.5,279.4z"/>
	<polygon points="-298.4,304.1 -299.4,302.7 -298,301.7 -298.9,300.3 -297.5,299.3 -298.4,297.9 -297,297 -297.9,295.6 
		-296.5,294.6 -297.5,293.2 -296,292.2 -297,290.8 -295.6,289.9 -296.5,288.4 -295.1,287.5 -296,286.1 -294.6,285.1 -295.5,283.7 
		-294.1,282.8 -295.1,281.3 -293.6,280.4 -294.6,279 -293.2,278 -294.3,276.3 -295.4,276.6 -294.7,277.7 -296.1,278.7 -295.1,280.1 
		-296.6,281 -295.6,282.5 -297.1,283.4 -296.1,284.8 -297.5,285.8 -296.6,287.2 -298,288.1 -297.1,289.6 -298.5,290.5 -297.5,291.9 
		-299,292.9 -298,294.3 -299.4,295.3 -298.5,296.7 -299.9,297.6 -299,299 -300.4,300 -299.5,301.4 -300.9,302.4 -299.9,303.8 
		-301.4,304.7 -301.3,304.8 -299.5,304.8 	"/>
	<path d="M-280.7,291.5c-0.4,0.1-0.8,0.2-1.3,0.2l-5.2,13.2h1.2L-280.7,291.5z"/>
	<path d="M-336,288.1c-0.3-2.3,1-3.7,3.3-4s4,0.6,4.3,2.9l2.6,17.8h0.6l-2.7-18c-0.4-2.6-2.4-3.8-5-3.4s-4.1,2.2-3.8,4.7l2.5,16.7
		h0.6L-336,288.1z"/>
	<path d="M-328.2,303.2c-0.1-0.6-0.3-0.8-0.5-1.1c-0.2-0.2-0.3-0.3-0.4-0.7c0-0.3,0-0.4,0-0.6c0.6-0.1,0.9-0.6,0.8-1.1l-0.7-5
		c-0.1-0.6-0.6-0.9-1.1-0.8l-0.1,0c0-0.4,0.1-0.5,0.1-0.8c0.2-0.3,0.3-0.6,0.2-1.2c-0.1-0.6-0.3-0.8-0.5-1.1
		c-0.2-0.2-0.3-0.3-0.4-0.7s0-0.6,0.1-0.8c0.1-0.2,0.3-0.6,0.2-1.1c0,0,0,0,0-0.1c-0.2-0.9-1-1.6-1.9-1.4s-1.5,1-1.4,1.9l0.9,5.8
		c-0.3,0.2-0.5,0.6-0.4,1l0.7,5c0.1,0.4,0.3,0.7,0.7,0.8l0.5,3.6h0.6l-0.5-3.6l1.6-0.2c0,0.2,0,0.3,0,0.6c0.1,0.5,0.3,0.8,0.5,1
		c0.2,0.2,0.3,0.3,0.4,0.7c0.1,0.4,0,0.6-0.1,0.8c-0.1,0.2-0.2,0.4-0.2,0.7h0.6c0-0.2,0.1-0.3,0.2-0.5
		C-328.2,304.1-328.1,303.7-328.2,303.2z M-330.6,293c-0.1,0.2-0.3,0.6-0.2,1.1l-1.6,0.2l-0.8-5.6c-0.1-0.6,0.3-1.1,0.9-1.2
		s1.1,0.3,1.2,0.9c0,0,0,0,0,0.1c0,0.4-0.1,0.5-0.1,0.8c-0.2,0.3-0.3,0.6-0.2,1.2c0.1,0.6,0.3,0.8,0.5,1.1c0.2,0.2,0.3,0.3,0.4,0.7
		C-330.4,292.6-330.4,292.8-330.6,293z"/>
	<path d="M-310.4,298.3l5.5,6.5h1.8l-6.7-7.9l2.4-6.6c0.3,0.4,0.7,0.9,1,1.1c0.8,0.5,1.8,0.8,2.8,0.6c2.1-0.4,3.5-2.4,3.1-4.5
		c-0.2-1-0.7-1.8-1.6-2.4c-0.8-0.5-1.8-0.8-2.8-0.6c-1.6,0.3-2.8,1.6-3.1,3.1l-2.9,8l-6.2-7.3c-0.1,0-0.1-0.1-0.2-0.1
		s-0.1,0-0.1-0.1s-0.2-0.1-0.2-0.2c-0.8-0.6-1.9-0.8-2.8-0.6c-2.1,0.4-3.5,2.4-3.1,4.5c0.2,1,0.7,1.8,1.6,2.4
		c0.8,0.5,1.8,0.8,2.8,0.6c1.6-0.3,2.9-1.6,3.1-3.2l4.5,5.4l-2.8,7.6h1.4L-310.4,298.3z M-306.7,288.4l0.4-1.2c0-0.1,0-0.2,0-0.2
		c0.3-0.6,0.9-1,1.6-1.1c1.3-0.2,2.7,0.8,2.9,2c0.2,1.3-0.7,2.6-2,2.9c-0.6,0.1-1.2,0-1.8-0.4c-0.5-0.4-0.9-0.9-1.1-1.6
		C-306.7,288.6-306.8,288.5-306.7,288.4z M-319.2,293.6c-0.6,0.1-1.2,0-1.8-0.4c-0.6-0.4-1-0.9-1.1-1.6c-0.2-1.3,0.7-2.6,2-2.9
		c1.3-0.2,2.6,0.7,2.9,2C-317,292.1-317.9,293.4-319.2,293.6z"/>
	<path d="M-359.4,298l4.7,0.6l-0.8,6.2h1.5l0.9-6.7l0,0c0,0,0,0,0,0l0.1-1c0-0.1,0-0.2,0-0.3l-2.1-7.7c-0.1-0.3-0.3-0.5-0.6-0.5
		c-0.2,0-0.4,0-0.5,0.1c-0.1,0.1-0.1,0.1-0.2,0.2l-4.1,6.9c-0.1,0.1-0.1,0.3-0.1,0.5c0,0.1,0,0.3,0,0.6c0,0.1-0.1,0.2-0.1,0.3
		c0,0.1,0,0.2,0,0.3c-0.1,1.2-0.4,3.4-1,7.4h1.5C-359.8,301.4-359.6,299.3-359.4,298z M-356.1,291.1l1.6,5.9l0,0.2l-4.8-0.6
		c0,0,0-0.1,0-0.1L-356.1,291.1z"/>
	<path class="st1" d="M-277.5,304.8h-8.4h-1.2h-12.4h-1.8h-1.8h-1.8h-7.8h-1.4h-11.1h-0.6h-2.7h-0.6h-1.7h-0.6h-2.1h-0.6h-7.2h-1.2
		h-4.8h-1.2h-5.6h-1.5h-4.7h-1.5h-0.7c-2.5,0-4.5,2-4.5,4.5v30c0,2.5,2,4.5,4.5,4.5h85c2.5,0,4.5-2,4.5-4.5v-30
		C-273,306.8-275,304.8-277.5,304.8z"/>
</g>
</svg>
