<svg xmlns="http://www.w3.org/2000/svg" width="100%" xmlns:xlink="http://www.w3.org/1999/xlink" version="1.1" x="0px" y="0px" viewBox="0 0 100 100" enable-background="new 0 0 100 100" xml:space="preserve"><path d="M33.235,57.791c-0.613,0-1.188-0.379-1.41-0.988c-1.585-4.371-4.437-7.729-7.822-9.214  c-0.759-0.333-1.104-1.218-0.771-1.977s1.216-1.104,1.977-0.771c4.134,1.813,7.574,5.8,9.438,10.938  c0.282,0.779-0.12,1.64-0.898,1.922C33.577,57.763,33.405,57.791,33.235,57.791z"></path><path d="M27.92,66.269H9.261c-1.515,0-2.945-0.663-3.924-1.82c-0.983-1.163-1.403-2.693-1.15-4.199  c1.196-7.139,5.246-13.037,10.568-15.392c0.76-0.335,1.644,0.009,1.979,0.766s-0.008,1.644-0.766,1.979  c-4.41,1.951-7.791,6.987-8.822,13.145c-0.106,0.634,0.069,1.276,0.482,1.765s0.993,0.758,1.633,0.758H27.92  c0.828,0,1.5,0.672,1.5,1.5S28.748,66.269,27.92,66.269z"></path><path d="M20,48.961c-5.853,0-10.614-4.762-10.614-10.615c0-5.853,4.762-10.614,10.614-10.614s10.614,4.762,10.614,10.614  C30.614,44.199,25.853,48.961,20,48.961z M20,30.731c-4.198,0-7.614,3.416-7.614,7.614c0,4.199,3.416,7.615,7.614,7.615  s7.614-3.416,7.614-7.615C27.614,34.147,24.198,30.731,20,30.731z"></path><path d="M66.766,57.791c-0.17,0-0.343-0.028-0.512-0.09c-0.778-0.282-1.181-1.143-0.898-1.922c1.863-5.139,5.304-9.125,9.438-10.938  c0.76-0.331,1.644,0.014,1.977,0.771c0.332,0.759-0.013,1.644-0.771,1.977c-3.386,1.484-6.237,4.843-7.822,9.214  C67.954,57.412,67.379,57.791,66.766,57.791z"></path><path d="M90.739,66.269h-18.66c-0.828,0-1.5-0.672-1.5-1.5s0.672-1.5,1.5-1.5h18.66c0.64,0,1.219-0.269,1.633-0.758  c0.413-0.488,0.589-1.131,0.482-1.765c-1.032-6.157-4.413-11.194-8.823-13.145c-0.758-0.335-1.101-1.221-0.766-1.979  c0.335-0.757,1.219-1.101,1.979-0.766c5.322,2.354,9.372,8.252,10.569,15.393c0.252,1.506-0.168,3.036-1.152,4.199  C93.683,65.605,92.253,66.269,90.739,66.269z"></path><path d="M80,48.961c-5.853,0-10.614-4.762-10.614-10.615c0-5.853,4.762-10.614,10.614-10.614s10.614,4.762,10.614,10.614  C90.614,44.199,85.853,48.961,80,48.961z M80,30.731c-4.198,0-7.614,3.416-7.614,7.614c0,4.199,3.416,7.615,7.614,7.615  s7.614-3.416,7.614-7.615C87.614,34.147,84.198,30.731,80,30.731z"></path><path d="M67.184,79.932H32.817c-2.158,0-4.195-0.945-5.591-2.593c-1.403-1.658-2.001-3.841-1.642-5.988  c1.87-11.156,8.168-20.344,16.436-23.977c0.761-0.334,1.644,0.012,1.977,0.77c0.333,0.759-0.011,1.644-0.77,1.977  c-7.353,3.23-12.979,11.556-14.684,21.727c-0.214,1.275,0.141,2.57,0.973,3.554c0.824,0.974,2.026,1.531,3.301,1.531h34.367  c1.273,0,2.476-0.558,3.299-1.53c0.833-0.984,1.188-2.279,0.975-3.555c-1.698-10.131-7.298-18.444-14.614-21.695  c-0.757-0.337-1.098-1.224-0.762-1.98c0.337-0.756,1.219-1.099,1.98-0.762c8.225,3.655,14.491,12.829,16.354,23.941  c0.359,2.147-0.239,4.33-1.644,5.988C71.378,78.986,69.341,79.932,67.184,79.932z"></path><path d="M50,52.237c-8.869,0-16.084-7.215-16.084-16.084S41.131,20.068,50,20.068s16.084,7.216,16.084,16.085  S58.869,52.237,50,52.237z M50,23.068c-7.215,0-13.084,5.87-13.084,13.085S42.785,49.237,50,49.237s13.084-5.869,13.084-13.084  S57.215,23.068,50,23.068z"></path></svg>